<svg width="16" height="16" viewBox="0 0 16 16" fill="none" xmlns="http://www.w3.org/2000/svg">
<path d="M14.667 7.33333C14.4902 7.33333 14.3206 7.40357 14.1956 7.5286C14.0706 7.65362 14.0003 7.82319 14.0003 8C14.0003 9.18669 13.6484 10.3467 12.9891 11.3334C12.3299 12.3201 11.3928 13.0892 10.2964 13.5433C9.20007 13.9974 7.99367 14.1162 6.82979 13.8847C5.6659 13.6532 4.5968 13.0818 3.75769 12.2426C2.91857 11.4035 2.34713 10.3344 2.11562 9.17054C1.88411 8.00666 2.00293 6.80026 2.45705 5.7039C2.91118 4.60754 3.68021 3.67047 4.66691 3.01118C5.6536 2.35189 6.81364 2 8.00033 2C9.03348 1.99815 10.0492 2.2661 10.947 2.77733L10.1957 3.52867C10.1025 3.6219 10.039 3.74068 10.0133 3.86998C9.98756 3.99928 10.0008 4.1333 10.0512 4.2551C10.1017 4.3769 10.1871 4.48101 10.2967 4.55427C10.4063 4.62752 10.5352 4.66664 10.667 4.66667H13.3337C13.5105 4.66667 13.68 4.59643 13.8051 4.4714C13.9301 4.34638 14.0003 4.17681 14.0003 4V1.33333C14.0003 1.2015 13.9612 1.07263 13.8879 0.963028C13.8147 0.853421 13.7106 0.767995 13.5888 0.717548C13.467 0.667101 13.3329 0.653899 13.2036 0.679611C13.0743 0.705323 12.9556 0.768794 12.8623 0.862L11.9217 1.8C10.7497 1.05533 9.38888 0.66203 8.00033 0.666666C6.54993 0.666666 5.13211 1.09676 3.92615 1.90256C2.72019 2.70835 1.78025 3.85366 1.22521 5.19365C0.67017 6.53365 0.524945 8.00813 0.807903 9.43066C1.09086 10.8532 1.78929 12.1599 2.81488 13.1855C3.84046 14.211 5.14714 14.9095 6.56967 15.1924C7.99219 15.4754 9.46668 15.3302 10.8067 14.7751C12.1467 14.2201 13.292 13.2801 14.0978 12.0742C14.9036 10.8682 15.3337 9.4504 15.3337 8C15.3337 7.82319 15.2634 7.65362 15.1384 7.5286C15.0134 7.40357 14.8438 7.33333 14.667 7.33333Z" fill="#F59338"/>
</svg>
