<svg width="28" height="29" viewBox="0 0 28 29" fill="none" xmlns="http://www.w3.org/2000/svg">
<path d="M25.8707 15.4067C25.8707 17.8562 25.0653 20.1814 23.5415 22.1313C23.2409 22.5161 22.6755 22.5908 22.2791 22.3006C21.8822 22.01 21.8039 21.4629 22.104 21.0787C23.3891 19.4345 24.0683 17.4731 24.0683 15.4067C24.0683 10.1999 19.7118 5.99115 14.3354 5.99115C8.9553 5.99115 4.60244 10.2031 4.60244 15.4067C4.60244 17.4731 5.28169 19.4345 6.5666 21.0787C6.86688 21.4629 6.78855 22.01 6.39164 22.3006C5.99455 22.5913 5.42954 22.5154 5.12908 22.1313C3.60549 20.1814 2.80005 17.8562 2.80005 15.4067C2.80005 9.23529 7.96293 4.24658 14.3354 4.24658C20.7114 4.24658 25.8707 9.2387 25.8707 15.4067ZM20.0455 10.1534C20.3973 10.494 20.3973 11.0463 20.0455 11.3869L17.108 14.2301C17.3498 14.6617 17.4875 15.1557 17.4875 15.6801C17.4875 17.3625 16.0734 18.7311 14.3354 18.7311C12.5972 18.7311 11.1833 17.3625 11.1833 15.6801C11.1833 13.9979 12.5972 12.6292 14.3354 12.6292C14.8773 12.6292 15.3876 12.7624 15.8334 12.9965L18.771 10.1532C19.123 9.81266 19.6935 9.81266 20.0455 10.1534ZM15.6851 15.6803C15.6851 14.96 15.0796 14.3739 14.3354 14.3739C13.5912 14.3739 12.9857 14.96 12.9857 15.6803C12.9857 16.4006 13.5912 16.9867 14.3354 16.9867C15.0796 16.9867 15.6851 16.4006 15.6851 15.6803Z" fill="#181818"/>
</svg>
