<svg width="12" height="20" viewBox="0 0 12 20" fill="none" xmlns="http://www.w3.org/2000/svg">
<path d="M1.16667 14.4829C1.63956 14.7289 2.19326 14.9316 2.80139 15.0893C3.81931 15.3532 5.02408 15.5 6.33334 15.5C7.64261 15.5 8.84738 15.3532 9.86529 15.0893C10.4734 14.9316 11.0271 14.7289 11.5 14.4829V17.3333C11.5 17.3584 11.4802 17.4755 11.2587 17.6654C11.0467 17.8473 10.7082 18.0424 10.2406 18.2211C9.30968 18.5767 7.95559 18.8333 6.33334 18.8333C4.7111 18.8333 3.357 18.5767 2.42606 18.2211C1.95848 18.0424 1.61997 17.8473 1.40794 17.6654C1.18645 17.4755 1.16667 17.3584 1.16667 17.3333V14.4829ZM1.16667 9.81625C1.63956 10.0623 2.19326 10.2649 2.80139 10.4226C3.81931 10.6865 5.02408 10.8333 6.33334 10.8333C7.64261 10.8333 8.84738 10.6865 9.86529 10.4226C10.4734 10.2649 11.0271 10.0623 11.5 9.81625V12.3333C11.5 12.3584 11.4802 12.4755 11.2587 12.6654C11.0467 12.8473 10.7082 13.0424 10.2406 13.2211C9.30968 13.5767 7.95559 13.8333 6.33334 13.8333C4.7111 13.8333 3.357 13.5767 2.42606 13.2211C1.95848 13.0424 1.61997 12.8473 1.40794 12.6654C1.18645 12.4755 1.16667 12.3584 1.16667 12.3333V9.81625ZM1.16667 7.66667V4.81625C1.63956 5.06226 2.19326 5.26494 2.80139 5.42261C3.81931 5.68654 5.02408 5.83333 6.33334 5.83333C7.64261 5.83333 8.84738 5.68654 9.86529 5.42261C10.4734 5.26494 11.0271 5.06226 11.5 4.81625V7.66667C11.5 7.69178 11.4802 7.80881 11.2587 7.99878C11.0467 8.18062 10.7082 8.37575 10.2406 8.55439C9.30968 8.91004 7.95559 9.16667 6.33334 9.16667C4.7111 9.16667 3.357 8.91004 2.42606 8.55439C1.95848 8.37575 1.61997 8.18062 1.40794 7.99878C1.18645 7.80881 1.16667 7.69178 1.16667 7.66667ZM6.33334 1.16667C7.95558 1.16667 9.30967 1.42333 10.2406 1.779C10.7082 1.95765 11.0467 2.15279 11.2587 2.33463C11.4803 2.5246 11.5 2.64161 11.5 2.66667C11.5 2.69178 11.4802 2.80881 11.2587 2.99878C11.0467 3.18062 10.7082 3.37575 10.2406 3.55439C9.30968 3.91004 7.95559 4.16667 6.33334 4.16667C4.7111 4.16667 3.357 3.91004 2.42606 3.55439C1.95848 3.37575 1.61997 3.18062 1.40794 2.99878C1.18645 2.80881 1.16667 2.69178 1.16667 2.66667C1.16667 2.64161 1.18642 2.5246 1.40794 2.33463C1.61997 2.15279 1.95848 1.95765 2.42607 1.779C3.35701 1.42333 4.71111 1.16667 6.33334 1.16667Z" fill="white" stroke="#181818"/>
</svg>
