<svg width="16" height="16" viewBox="0 0 16 16" fill="none" xmlns="http://www.w3.org/2000/svg">
    <path d="M10.86 9.52669L8.00004 12.3934L5.14004 9.52669C5.01451 9.40115 4.84424 9.33063 4.66671 9.33063C4.48917 9.33063 4.31891 9.40115 4.19338 9.52669C4.06784 9.65222 3.99731 9.82249 3.99731 10C3.99731 10.1776 4.06784 10.3478 4.19338 10.4734L7.52671 13.8067C7.58868 13.8692 7.66242 13.9188 7.74366 13.9526C7.8249 13.9865 7.91203 14.0039 8.00004 14.0039C8.08805 14.0039 8.17519 13.9865 8.25643 13.9526C8.33767 13.9188 8.4114 13.8692 8.47337 13.8067L11.8067 10.4734C11.8689 10.4112 11.9182 10.3374 11.9518 10.2562C11.9855 10.175 12.0028 10.0879 12.0028 10C12.0028 9.91211 11.9855 9.82507 11.9518 9.74385C11.9182 9.66264 11.8689 9.58885 11.8067 9.52669C11.7445 9.46453 11.6708 9.41522 11.5895 9.38158C11.5083 9.34794 11.4213 9.33063 11.3334 9.33063C11.2455 9.33063 11.1584 9.34794 11.0772 9.38158C10.996 9.41522 10.9222 9.46453 10.86 9.52669ZM5.14004 6.47335L8.00004 3.60669L10.86 6.47335C10.922 6.53584 10.9958 6.58544 11.077 6.61928C11.1582 6.65313 11.2454 6.67055 11.3334 6.67055C11.4214 6.67055 11.5085 6.65313 11.5898 6.61928C11.671 6.58544 11.7447 6.53584 11.8067 6.47335C11.8692 6.41138 11.9188 6.33764 11.9526 6.2564C11.9865 6.17517 12.0039 6.08803 12.0039 6.00002C12.0039 5.91201 11.9865 5.82488 11.9526 5.74364C11.9188 5.6624 11.8692 5.58866 11.8067 5.52669L8.47337 2.19335C8.4114 2.13087 8.33767 2.08127 8.25643 2.04743C8.17519 2.01358 8.08805 1.99615 8.00004 1.99615C7.91203 1.99615 7.8249 2.01358 7.74366 2.04743C7.66242 2.08127 7.58868 2.13087 7.52671 2.19335L4.19338 5.52669C4.06784 5.65222 3.99731 5.82249 3.99731 6.00002C3.99731 6.17756 4.06784 6.34782 4.19338 6.47335C4.31891 6.59889 4.48917 6.66941 4.66671 6.66941C4.84424 6.66941 5.01451 6.59889 5.14004 6.47335Z" fill="#546A8A"/>
</svg>