<svg width="20" height="20" viewBox="0 0 20 20" fill="none" xmlns="http://www.w3.org/2000/svg">
    <g clip-path="url(#clip0)">
        <path d="M17.0711 2.92948C15.1823 1.04073 12.6711 0.000577157 9.99996 0.000577157C8.20289 0.000577157 6.45793 0.477647 4.92324 1.3837L3.71172 0.172179C3.54414 0.00456154 3.29211 -0.0455557 3.07316 0.0451475C2.85422 0.135851 2.71145 0.349483 2.71145 0.586476V3.39007C2.71145 3.71366 2.97379 3.97601 3.29738 3.97601H6.10102C6.33801 3.97601 6.55168 3.83327 6.64234 3.61429C6.73301 3.39534 6.68289 3.14331 6.51531 2.97573L5.78277 2.24319C7.07176 1.54097 8.51559 1.17241 10 1.17241C14.8678 1.17241 18.8281 5.13269 18.8281 10.0005C18.8281 14.8684 14.8678 18.8287 10 18.8287C5.13215 18.8287 1.17188 14.8684 1.17188 10.0005C1.17188 9.67694 0.909531 9.4146 0.585938 9.4146C0.262344 9.4146 0 9.67694 0 10.0005C0 12.6716 1.04016 15.1828 2.92891 17.0716C4.8177 18.9603 7.32891 20.0005 9.99996 20.0005C12.671 20.0005 15.1823 18.9603 17.0711 17.0716C18.9598 15.1828 20 12.6716 20 10.0005C20 7.32948 18.9598 4.81823 17.0711 2.92948Z" fill="#181818"/>
        <path d="M13.7656 9.41408H10.5859V6.2344C10.5859 5.91077 10.3236 5.64847 10 5.64847C9.67641 5.64847 9.41406 5.91081 9.41406 6.2344V10C9.41406 10.3236 9.67641 10.586 10 10.586H13.7656C14.0892 10.586 14.3516 10.3236 14.3516 10C14.3516 9.67643 14.0892 9.41408 13.7656 9.41408Z" fill="#181818"/>
    </g>
    <defs>
        <clipPath id="clip0">
            <rect width="20" height="20" fill="white"/>
        </clipPath>
    </defs>
</svg>