<svg width="24" height="24" viewBox="0 0 24 24" fill="none" xmlns="http://www.w3.org/2000/svg">
    <path d="M7.16667 16.4829C7.63956 16.7289 8.19326 16.9316 8.80139 17.0893C9.81931 17.3532 11.0241 17.5 12.3333 17.5C13.6426 17.5 14.8474 17.3532 15.8653 17.0893C16.4734 16.9316 17.0271 16.7289 17.5 16.4829V19.3333C17.5 19.3584 17.4802 19.4755 17.2587 19.6654C17.0467 19.8473 16.7082 20.0424 16.2406 20.2211C15.3097 20.5767 13.9556 20.8333 12.3333 20.8333C10.7111 20.8333 9.357 20.5767 8.42606 20.2211C7.95848 20.0424 7.61997 19.8473 7.40794 19.6654C7.18645 19.4755 7.16667 19.3584 7.16667 19.3333V16.4829ZM7.16667 11.8162C7.63956 12.0623 8.19326 12.2649 8.80139 12.4226C9.81931 12.6865 11.0241 12.8333 12.3333 12.8333C13.6426 12.8333 14.8474 12.6865 15.8653 12.4226C16.4734 12.2649 17.0271 12.0623 17.5 11.8162V14.3333C17.5 14.3584 17.4802 14.4755 17.2587 14.6654C17.0467 14.8473 16.7082 15.0424 16.2406 15.2211C15.3097 15.5767 13.9556 15.8333 12.3333 15.8333C10.7111 15.8333 9.357 15.5767 8.42606 15.2211C7.95848 15.0424 7.61997 14.8473 7.40794 14.6654C7.18645 14.4755 7.16667 14.3584 7.16667 14.3333V11.8162ZM7.16667 9.66667V6.81625C7.63956 7.06226 8.19326 7.26494 8.80139 7.42261C9.81931 7.68654 11.0241 7.83333 12.3333 7.83333C13.6426 7.83333 14.8474 7.68654 15.8653 7.42261C16.4734 7.26494 17.0271 7.06226 17.5 6.81625V9.66667C17.5 9.69178 17.4802 9.80881 17.2587 9.99878C17.0467 10.1806 16.7082 10.3758 16.2406 10.5544C15.3097 10.91 13.9556 11.1667 12.3333 11.1667C10.7111 11.1667 9.357 10.91 8.42606 10.5544C7.95848 10.3758 7.61997 10.1806 7.40794 9.99878C7.18645 9.80881 7.16667 9.69178 7.16667 9.66667ZM12.3333 3.16667C13.9556 3.16667 15.3097 3.42333 16.2406 3.779C16.7082 3.95765 17.0467 4.15279 17.2587 4.33463C17.4803 4.5246 17.5 4.64161 17.5 4.66667C17.5 4.69178 17.4802 4.80881 17.2587 4.99878C17.0467 5.18062 16.7082 5.37575 16.2406 5.55439C15.3097 5.91004 13.9556 6.16667 12.3333 6.16667C10.7111 6.16667 9.357 5.91004 8.42606 5.55439C7.95848 5.37575 7.61997 5.18062 7.40794 4.99878C7.18645 4.80881 7.16667 4.69178 7.16667 4.66667C7.16667 4.64161 7.18642 4.5246 7.40794 4.33463C7.61997 4.15279 7.95848 3.95765 8.42607 3.779C9.35701 3.42333 10.7111 3.16667 12.3333 3.16667Z" fill="white" stroke="#181818"/>
</svg>