<svg width="20" height="20" viewBox="0 0 20 20" fill="none" xmlns="http://www.w3.org/2000/svg">
<g clip-path="url(#clip0)">
<path d="M20 1.98502L14.7461 0.0390625L9.49219 1.98502V8.65204L13.9844 10.3159V12.4727L12.0703 13.217V14.8935L15.5469 13.5414V10.3014L20 8.65204V1.98502ZM16.9693 2.52869L14.7461 3.3522L12.5229 2.52869L14.7461 1.70532L16.9693 2.52869ZM11.0547 7.56454V3.65112L13.9844 4.73618V8.6496L11.0547 7.56454ZM15.5469 8.6351V4.72183L18.4375 3.65112V7.56454L15.5469 8.6351ZM6.05469 7.60727L7.92969 6.89087V5.2182L4.49219 6.53168V9.75113L0 11.4149V18.0821L5.25391 20.0279L10.5078 18.082V11.4149L6.05469 9.76562V7.60727ZM5.25391 12.7821L3.0307 11.9588L5.25391 11.1353L7.47711 11.9588L5.25391 12.7821ZM1.5625 13.0812L4.49219 14.1663V18.0797L1.5625 16.9946V13.0812ZM6.05469 18.0652V14.1518L8.94531 13.0812V16.9946L6.05469 18.0652Z" fill="black"/>
</g>
<defs>
<clipPath id="clip0">
<rect width="20" height="20" fill="white"/>
</clipPath>
</defs>
</svg>
