<svg width="15" height="20" viewBox="0 0 15 20" fill="none" xmlns="http://www.w3.org/2000/svg">
<path d="M10.1893 3.90985H1.48082C0.663683 3.90985 0 4.57353 0 5.39067V17.8856C0 18.7027 0.663683 19.3664 1.48082 19.3664H10.1893C11.0064 19.3664 11.6701 18.7027 11.6701 17.8856V5.39067C11.6662 4.57353 11.0026 3.90985 10.1893 3.90985ZM10.6304 17.8817C10.6304 18.1272 10.4309 18.3267 10.1854 18.3267H1.47698C1.23146 18.3267 1.03197 18.1272 1.03197 17.8817V5.39067C1.03197 5.14515 1.23146 4.94566 1.47698 4.94566H10.1854C10.4309 4.94566 10.6304 5.14515 10.6304 5.39067V17.8817Z" fill="#727286"/>
<path d="M13.5191 0.633606H4.81065C3.99352 0.633606 3.32983 1.29729 3.32983 2.11442C3.32983 2.40215 3.56001 2.63233 3.84774 2.63233C4.13546 2.63233 4.36564 2.40215 4.36564 2.11442C4.36564 1.8689 4.56513 1.66941 4.81065 1.66941H13.5191C13.7646 1.66941 13.9641 1.8689 13.9641 2.11442V14.6093C13.9641 14.8548 13.7646 15.0543 13.5191 15.0543C13.2314 15.0543 13.0012 15.2845 13.0012 15.5722C13.0012 15.8599 13.2314 16.0901 13.5191 16.0901C14.3362 16.0901 14.9999 15.4264 14.9999 14.6093V2.11442C14.9999 1.29729 14.3362 0.633606 13.5191 0.633606Z" fill="#727286"/>
</svg>
