<svg width="20" height="17" viewBox="0 0 20 17" fill="none" xmlns="http://www.w3.org/2000/svg">
<path d="M19.5173 4.4631C19.1822 4.07206 18.7061 3.82234 18.1291 3.75165C18.1272 3.72207 18.1242 3.69271 18.1185 3.66383C17.852 2.66462 16.7862 1.93194 15.5872 1.93194H10.6629L8.99264 0.199886C8.8594 0.0665926 8.72622 2.3344e-09 8.52639 2.3344e-09H2.59792C1.0658 -5.38752e-05 0 0.932512 0 2.1982V14.0552C0 14.7647 0.321218 15.5308 0.842806 16.0921C0.850726 16.1014 0.857945 16.1109 0.865973 16.1202C1.26564 16.6531 1.86519 16.9195 2.53127 16.9195H2.59787H15.5873C16.9861 16.9195 18.1852 15.5873 18.4516 14.3216L19.9837 6.26148C20.0502 5.59539 19.917 4.92931 19.5173 4.4631ZM1.33234 2.19836C1.33228 1.53222 2.13161 1.33234 2.59792 1.33234H8.25996L9.85867 2.99764C9.97725 3.11622 10.1222 3.18168 10.27 3.19472C10.3627 3.23955 10.4708 3.26417 10.5913 3.26417H15.5873C16.0463 3.26417 16.466 3.45947 16.6974 3.73037H4.72953C3.33065 3.73037 2.13161 4.66294 1.93183 5.92857L1.33228 9.16085V2.19836H1.33234ZM18.6514 6.06192L17.1193 14.122C16.9861 14.8547 16.32 15.5874 15.6538 15.5874H15.5873H2.59792C2.33995 15.5874 2.0697 15.4269 1.84547 15.191C1.71422 14.9663 1.67618 14.734 1.73195 14.455L3.26401 6.19505C3.33065 5.52891 3.99674 5.06265 4.72948 5.06265L17.4524 5.1293H17.7854C18.1185 5.1293 18.3849 5.19589 18.5182 5.39572C18.6514 5.52896 18.718 5.7955 18.6514 6.06192Z" fill="black"/>
</svg>
