<svg width="20" height="20" viewBox="0 0 20 20" fill="none" xmlns="http://www.w3.org/2000/svg">
<path d="M4.16675 15.0003H7.70008C7.80975 15.0009 7.91847 14.9799 8.02 14.9384C8.12153 14.8969 8.21388 14.8358 8.29175 14.7586L14.0584 8.98361L16.4251 6.66694C16.5032 6.58947 16.5652 6.4973 16.6075 6.39576C16.6498 6.29421 16.6716 6.18528 16.6716 6.07527C16.6716 5.96526 16.6498 5.85634 16.6075 5.75479C16.5652 5.65324 16.5032 5.56108 16.4251 5.48361L12.8917 1.90861C12.8143 1.8305 12.7221 1.76851 12.6206 1.7262C12.519 1.68389 12.4101 1.66211 12.3001 1.66211C12.1901 1.66211 12.0812 1.68389 11.9796 1.7262C11.8781 1.76851 11.7859 1.8305 11.7084 1.90861L9.35841 4.26694L3.57508 10.0419C3.49785 10.1198 3.43674 10.2122 3.39527 10.3137C3.3538 10.4152 3.33278 10.5239 3.33341 10.6336V14.1669C3.33341 14.388 3.42121 14.5999 3.57749 14.7562C3.73377 14.9125 3.94573 15.0003 4.16675 15.0003ZM12.3001 3.67527L14.6584 6.03361L13.4751 7.21694L11.1167 4.85861L12.3001 3.67527ZM5.00008 10.9753L9.94175 6.03361L12.3001 8.39194L7.35842 13.3336H5.00008V10.9753ZM17.5001 16.6669H2.50008C2.27907 16.6669 2.06711 16.7547 1.91083 16.911C1.75455 17.0673 1.66675 17.2793 1.66675 17.5003C1.66675 17.7213 1.75455 17.9333 1.91083 18.0895C2.06711 18.2458 2.27907 18.3336 2.50008 18.3336H17.5001C17.7211 18.3336 17.9331 18.2458 18.0893 18.0895C18.2456 17.9333 18.3334 17.7213 18.3334 17.5003C18.3334 17.2793 18.2456 17.0673 18.0893 16.911C17.9331 16.7547 17.7211 16.6669 17.5001 16.6669Z" fill="#1B57F0"/>
</svg>
