<svg width="20" height="20" viewBox="0 0 20 20" fill="none" xmlns="http://www.w3.org/2000/svg">
<path d="M3.95833 20C3.8775 20 3.79667 19.9842 3.71917 19.9525C3.48583 19.8558 3.33333 19.6275 3.33333 19.375V15.8333H2.29167C1.0275 15.8333 0 14.8058 0 13.5417V2.29167C0 1.0275 1.0275 0 2.29167 0H17.7083C18.9725 0 20 1.0275 20 2.29167V13.5417C20 14.8058 18.9725 15.8333 17.7083 15.8333H8.38417L4.40083 19.8167C4.28083 19.9367 4.12083 20 3.95833 20ZM2.29167 1.25C1.7175 1.25 1.25 1.7175 1.25 2.29167V13.5417C1.25 14.1158 1.7175 14.5833 2.29167 14.5833H3.95833C4.30333 14.5833 4.58333 14.8633 4.58333 15.2083V17.8658L7.68333 14.7658C7.80083 14.6483 7.95917 14.5825 8.125 14.5825H17.7083C18.2825 14.5825 18.75 14.115 18.75 13.5408V2.29167C18.75 1.7175 18.2825 1.25 17.7083 1.25H2.29167Z" fill="black"/>
<path d="M7.08324 10.6249C6.94158 10.6249 6.79991 10.5774 6.68325 10.4799L4.18325 8.39658C4.04075 8.27825 3.95825 8.10242 3.95825 7.91659C3.95825 7.73075 4.04075 7.55492 4.18325 7.43659L6.68325 5.35326C6.94825 5.13243 7.34158 5.16659 7.56324 5.43326C7.78491 5.69826 7.74908 6.09243 7.48324 6.31326L5.55991 7.91659L7.48408 9.51991C7.74908 9.74075 7.78491 10.1349 7.56408 10.3999C7.43991 10.5482 7.26241 10.6249 7.08324 10.6249Z" fill="black"/>
<path d="M12.0834 10.6249C11.9042 10.6249 11.7267 10.5482 11.6034 10.3999C11.3817 10.1349 11.4176 9.74075 11.6834 9.51991L13.6067 7.91659L11.6834 6.31326C11.4184 6.09243 11.3826 5.69826 11.6034 5.43326C11.8242 5.16659 12.2184 5.13243 12.4842 5.35326L14.9842 7.43659C15.1267 7.55575 15.2092 7.73159 15.2092 7.91659C15.2092 8.10159 15.1267 8.27825 14.9842 8.39658L12.4842 10.4799C12.3667 10.5774 12.2251 10.6249 12.0834 10.6249Z" fill="black"/>
<path d="M8.7501 11.4584C8.69426 11.4584 8.63593 11.4509 8.57843 11.4342C8.24676 11.3392 8.05426 10.9934 8.14926 10.6617L9.81594 4.82842C9.9101 4.49758 10.2509 4.30342 10.5884 4.39925C10.9201 4.49425 11.1126 4.84008 11.0176 5.17175L9.35093 11.0051C9.2726 11.2801 9.0226 11.4584 8.7501 11.4584Z" fill="black"/>
</svg>
