<svg width="20" height="20" viewBox="0 0 20 20" fill="none" xmlns="http://www.w3.org/2000/svg">
<path d="M19.2188 13.75C19.6502 13.75 20 13.4002 20 12.9688V7.5275C20 6.45695 19.4618 5.47316 18.5602 4.89582L16.6797 3.69168V0.78125C16.6797 0.349766 16.3299 0 15.8984 0H4.10156C3.67008 0 3.32031 0.349766 3.32031 0.78125V3.6884L1.44109 4.89047C0.53875 5.4677 0 6.45176 0 7.52297V16.875C0 18.5981 1.40188 20 3.125 20H16.875C18.5981 20 20 18.5981 20 16.875C20 16.4435 19.6502 16.0938 19.2188 16.0938C18.7873 16.0938 18.4375 16.4435 18.4375 16.875C18.4375 17.7366 17.7366 18.4375 16.875 18.4375H3.125C2.26344 18.4375 1.5625 17.7366 1.5625 16.875V8.54191L6.96949 11.9129C7.09809 11.9931 7.24094 12.0313 7.38207 12.0313C7.64281 12.0313 7.89766 11.9008 8.04578 11.6633C8.27406 11.2971 8.1623 10.8153 7.79613 10.587L4.88281 8.7707V1.5625H15.1172V8.76L12.1663 10.5903C11.7996 10.8177 11.6868 11.2993 11.9142 11.666C12.0621 11.9045 12.3175 12.0356 12.5789 12.0356C12.7194 12.0356 12.8617 11.9977 12.9899 11.9181L18.4375 8.53918V12.9688C18.4375 13.4002 18.7873 13.75 19.2188 13.75ZM1.73523 6.80832C1.85922 6.56711 2.04562 6.35855 2.28301 6.20672L3.32031 5.5432V7.79656L1.73523 6.80832ZM16.6797 5.54707L17.7176 6.21168C17.9534 6.36266 18.1389 6.56961 18.2627 6.80895L16.6797 7.79082V5.54707ZM10.7422 12.4219C10.7422 12.8534 10.3924 13.2031 9.96094 13.2031C9.52945 13.2031 9.17969 12.8534 9.17969 12.4219C9.17969 11.9904 9.52945 11.6406 9.96094 11.6406C10.3924 11.6406 10.7422 11.9904 10.7422 12.4219ZM10.781 9.92188C10.781 10.3534 10.4313 10.7031 9.99977 10.7031C9.56828 10.7031 9.21852 10.3534 9.21852 9.92188V9.45312C9.21852 8.57301 9.73566 7.78355 10.536 7.44187C11.0341 7.22926 11.3582 6.74578 11.367 6.20582C11.3668 6.1982 11.3667 6.19051 11.3667 6.18281C11.3667 5.43191 10.7662 4.84375 9.99977 4.84375C9.23328 4.84375 8.63281 5.43195 8.63281 6.18281C8.63281 6.6143 8.28305 6.96406 7.85156 6.96406C7.42008 6.96406 7.07031 6.6143 7.07031 6.18281C7.07031 5.39937 7.3768 4.66687 7.93336 4.12035C8.48434 3.57926 9.2182 3.28125 9.99977 3.28125C10.7813 3.28125 11.5152 3.57926 12.0662 4.12035C12.6148 4.65914 12.9204 5.37859 12.929 6.14941C12.9295 6.16039 12.9297 6.17148 12.9297 6.18262C12.93 7.35871 12.2312 8.41703 11.1495 8.87883C10.9256 8.97437 10.781 9.1998 10.781 9.45309V9.92188H10.781Z" fill="black"/>
</svg>
