<svg width="16" height="12" viewBox="0 0 16 12" fill="none" xmlns="http://www.w3.org/2000/svg">
<path d="M2.27608 4.666H9.99992C10.3681 4.666 10.6666 4.36753 10.6666 3.99934C10.6666 3.63115 10.3681 3.33268 9.99992 3.33268H2.27608L3.80467 1.80409C4.06502 1.54374 4.06502 1.12162 3.80467 0.861274C3.54433 0.60093 3.1222 0.60093 2.86186 0.861274L0.195172 3.52793C0.179641 3.54346 0.164953 3.55981 0.151016 3.57681C0.144703 3.5845 0.139203 3.59262 0.133297 3.60053C0.126172 3.61003 0.118828 3.61931 0.112203 3.62921C0.105859 3.63868 0.100359 3.64853 0.0945469 3.65825C0.0892031 3.66718 0.0835781 3.67593 0.0786406 3.68515C0.0733281 3.69506 0.0688281 3.70528 0.0640781 3.7154C0.0595469 3.725 0.0547656 3.73443 0.0506719 3.74428C0.0466094 3.75412 0.0432969 3.76418 0.0397344 3.77418C0.0359531 3.78471 0.0319219 3.79509 0.0286719 3.80584C0.0256406 3.81584 0.0234219 3.82599 0.0208906 3.83612C0.0181094 3.84709 0.0150469 3.85793 0.0128281 3.86912C0.0105156 3.88084 0.00914062 3.89265 0.00745312 3.90443C0.00607812 3.91415 0.00420312 3.92375 0.00323437 3.93359C-0.00107813 3.97734 -0.00107813 4.02143 0.00323437 4.06518C0.00420312 4.07503 0.00604687 4.08459 0.00745312 4.09434C0.00914062 4.10612 0.0105156 4.11796 0.0128594 4.12965C0.0150781 4.14084 0.0181406 4.15165 0.0209219 4.16262C0.0234531 4.17275 0.0256719 4.1829 0.0287031 4.1929C0.0319531 4.20365 0.0359844 4.21406 0.0397656 4.22456C0.0433594 4.23456 0.0466406 4.24462 0.0507031 4.25446C0.0547656 4.26431 0.0595781 4.27371 0.0641094 4.28331C0.0688906 4.29343 0.0733906 4.30365 0.0787031 4.31359C0.0836406 4.32278 0.0892344 4.3315 0.0945781 4.34043C0.100391 4.35018 0.105891 4.36003 0.112234 4.36953C0.118828 4.3794 0.126172 4.38865 0.133266 4.39815C0.139203 4.40609 0.144703 4.41421 0.151047 4.42193C0.164891 4.43881 0.179484 4.45503 0.194891 4.47043C0.195016 4.47056 0.195078 4.47068 0.195203 4.47078L2.86186 7.13744C3.1222 7.39778 3.54433 7.39778 3.80467 7.13744C4.06502 6.87709 4.06502 6.45497 3.80467 6.19462L2.27608 4.666Z" fill="#1B57F0"/>
<path d="M15.8488 8.4218C15.8552 8.41405 15.8607 8.4059 15.8666 8.39793C15.8737 8.38849 15.881 8.37924 15.8876 8.3694C15.894 8.3599 15.8995 8.35002 15.9053 8.34027C15.9106 8.33137 15.9162 8.32265 15.9211 8.31349C15.9264 8.30355 15.9309 8.2933 15.9357 8.28315C15.9403 8.27359 15.945 8.26418 15.9491 8.25437C15.9532 8.24452 15.9565 8.23446 15.96 8.22446C15.9638 8.21393 15.9678 8.20355 15.9711 8.1928C15.9741 8.1828 15.9763 8.17262 15.9789 8.16252C15.9817 8.15155 15.9847 8.14071 15.9869 8.12955C15.9893 8.11784 15.9906 8.10602 15.9923 8.09424C15.9937 8.08452 15.9956 8.07496 15.9966 8.06509C16.0009 8.02134 16.0009 7.97724 15.9966 7.93349C15.9956 7.92365 15.9938 7.91409 15.9923 7.90434C15.9907 7.89255 15.9893 7.88071 15.9869 7.86902C15.9847 7.85784 15.9817 7.84702 15.9789 7.83605C15.9763 7.82593 15.9741 7.81577 15.9711 7.80577C15.9678 7.79502 15.9638 7.78462 15.96 7.77412C15.9564 7.76412 15.9532 7.75405 15.9491 7.74421C15.945 7.7344 15.9403 7.72499 15.9357 7.71543C15.9309 7.70527 15.9264 7.69502 15.9211 7.68509C15.9162 7.67593 15.9106 7.66721 15.9053 7.6583C15.8995 7.64855 15.8939 7.63868 15.8876 7.62918C15.881 7.61934 15.8737 7.61009 15.8666 7.60065C15.8607 7.59268 15.8551 7.58452 15.8488 7.57677C15.8351 7.56005 15.8206 7.54396 15.8053 7.52865C15.8051 7.5284 15.8048 7.52815 15.8046 7.52793L13.138 4.86127C12.8776 4.60093 12.4555 4.60093 12.1952 4.86127C11.9348 5.12162 11.9348 5.54374 12.1952 5.80409L13.7238 7.33268H5.99991C5.63172 7.33268 5.33325 7.63115 5.33325 7.99934C5.33325 8.36752 5.63172 8.66599 5.99991 8.66599H13.7238L12.1952 10.1946C11.9348 10.4549 11.9348 10.8771 12.1952 11.1374C12.4555 11.3977 12.8776 11.3977 13.138 11.1374L15.8046 8.47074C15.8049 8.47049 15.8051 8.47024 15.8053 8.47002C15.8206 8.45462 15.8351 8.43852 15.8488 8.4218Z" fill="#1B57F0"/>
</svg>
