<svg width="28" height="28" viewBox="0 0 28 28" fill="none" xmlns="http://www.w3.org/2000/svg">
<path d="M25.3283 10.8383L20.6617 6.17166C20.5529 6.06288 20.4237 5.97659 20.2816 5.91772C20.1395 5.85885 19.9872 5.82855 19.8333 5.82855C19.5226 5.82855 19.2247 5.95197 19.005 6.17166C18.7853 6.39135 18.6619 6.68931 18.6619 6.99999C18.6619 7.31068 18.7853 7.60864 19.005 7.82833L21.6883 10.5H8.16667C7.85725 10.5 7.5605 10.6229 7.34171 10.8417C7.12292 11.0605 7 11.3572 7 11.6667C7 11.9761 7.12292 12.2728 7.34171 12.4916C7.5605 12.7104 7.85725 12.8333 8.16667 12.8333H24.5C24.7303 12.8322 24.9552 12.7629 25.1462 12.6342C25.3372 12.5054 25.4858 12.323 25.5733 12.11C25.6627 11.8975 25.6871 11.6634 25.6435 11.437C25.5999 11.2107 25.4902 11.0024 25.3283 10.8383ZM19.8333 15.1667H3.5C3.26967 15.1678 3.04483 15.2371 2.85383 15.3658C2.66282 15.4946 2.51419 15.6769 2.42667 15.89C2.33732 16.1025 2.31291 16.3366 2.35652 16.5629C2.40012 16.7893 2.50978 16.9976 2.67167 17.1617L7.33833 21.8283C7.44679 21.9377 7.57583 22.0245 7.71799 22.0837C7.86016 22.1429 8.01265 22.1734 8.16667 22.1734C8.32068 22.1734 8.47317 22.1429 8.61534 22.0837C8.75751 22.0245 8.88654 21.9377 8.995 21.8283C9.10435 21.7199 9.19114 21.5908 9.25037 21.4487C9.3096 21.3065 9.3401 21.154 9.3401 21C9.3401 20.846 9.3096 20.6935 9.25037 20.5513C9.19114 20.4092 9.10435 20.2801 8.995 20.1717L6.31167 17.5H19.8333C20.1428 17.5 20.4395 17.3771 20.6583 17.1583C20.8771 16.9395 21 16.6427 21 16.3333C21 16.0239 20.8771 15.7272 20.6583 15.5084C20.4395 15.2896 20.1428 15.1667 19.8333 15.1667Z" fill="#1B57F0"/>
</svg>
