<svg width="20" height="20" viewBox="0 0 20 20" fill="none" xmlns="http://www.w3.org/2000/svg">
<path d="M15.841 0H4.15906C3.70542 0 3.33768 0.367745 3.33768 0.821383V17.5098C3.33768 17.9634 3.70542 18.3312 4.15906 18.3312C4.6127 18.3312 4.98044 17.9634 4.98044 17.5098V1.64277H15.0196V16.6884H14.1721C13.7185 16.6884 13.3508 17.0562 13.3508 17.5098C13.3508 17.9634 13.7185 18.3312 14.1721 18.3312H15.841C16.2946 18.3312 16.6623 17.9634 16.6623 17.5098V0.821383C16.6623 0.367745 16.2946 0 15.841 0Z" fill="black"/>
<path d="M12.3161 18.0143C12.5466 17.7189 12.5494 17.3043 12.3161 17.0053C12.2633 16.9377 12.4215 17.1009 10.5808 15.2602C10.26 14.9394 9.73993 14.9394 9.41916 15.2602C9.09843 15.5809 9.09843 16.101 9.41916 16.4218L9.68583 16.6884H6.66232C6.20869 16.6884 5.84094 17.0561 5.84094 17.5098C5.84094 17.9634 6.20869 18.3312 6.66232 18.3312H9.68583L9.41916 18.5978C8.90016 19.1168 9.27491 20.0001 9.99999 20C10.2102 20 10.4204 19.9198 10.5808 19.7594C12.4363 17.9039 12.2667 18.0776 12.3161 18.0143Z" fill="black"/>
<path d="M11.6688 4.98048C12.1225 4.98048 12.4902 4.61273 12.4902 4.15909C12.4902 3.70545 12.1225 3.33771 11.6688 3.33771H8.33118C7.87754 3.33771 7.5098 3.70545 7.5098 4.15909C7.5098 4.61273 7.87754 4.98048 8.33118 4.98048H11.6688Z" fill="black"/>
<path d="M12.5033 6.67535H7.49677C7.04313 6.67535 6.67538 7.0431 6.67538 7.49674C6.67538 7.95038 7.04313 8.31812 7.49677 8.31812H12.5033C12.9569 8.31812 13.3247 7.95038 13.3247 7.49674C13.3247 7.0431 12.9569 6.67535 12.5033 6.67535Z" fill="black"/>
</svg>
