<svg width="20" height="20" viewBox="0 0 20 20" fill="none" xmlns="http://www.w3.org/2000/svg">
<path d="M17.7353 7.15401H17.255V4.83648C17.255 4.82204 17.2527 4.80748 17.2508 4.79286C17.25 4.70082 17.2207 4.61047 17.1577 4.53887L13.3017 0.134126C13.3005 0.132995 13.2994 0.132594 13.2986 0.13139C13.2756 0.10571 13.2488 0.0843348 13.2204 0.0658774C13.2121 0.06026 13.2036 0.0555544 13.1948 0.0506301C13.1703 0.0372795 13.1442 0.026154 13.1174 0.0180926C13.1102 0.0160863 13.1036 0.0132047 13.0964 0.0112349C13.0673 0.00430428 13.037 0 13.0064 0H3.5295C3.09677 0 2.7452 0.351966 2.7452 0.784328V7.15379H2.26495C1.646 7.15379 1.14404 7.65546 1.14404 8.27473V14.1042C1.14404 14.7229 1.646 15.2252 2.26495 15.2252H2.7452V19.2157C2.7452 19.6481 3.09677 20 3.5295 20H16.4707C16.903 20 17.255 19.6481 17.255 19.2157V15.2252H17.7352C18.3541 15.2252 18.8561 14.7231 18.8561 14.1042V8.27495C18.8562 7.6555 18.3541 7.15401 17.7353 7.15401ZM3.5295 0.784328H12.6142V4.79701C12.6142 5.0138 12.79 5.18918 13.0064 5.18918H16.4707V7.15398H3.5295V0.784328ZM7.39814 8.20885H8.9185L9.43148 9.27763C9.60497 9.6335 9.73555 9.92043 9.87457 10.2507H9.89208C10.0306 9.87709 10.1438 9.61628 10.2915 9.27763L10.7871 8.20885H12.2991L10.6481 11.0673L12.3858 14.0652H10.8564L10.3266 13.0051C10.1093 12.5967 9.97014 12.2928 9.80497 11.9537H9.78753C9.66592 12.2928 9.5183 12.5967 9.33591 13.0051L8.84945 14.0652H7.3373L9.03184 11.1024L7.39814 8.20885ZM2.41049 9.32104V8.20889H6.9111V9.32104H5.31238V14.0648H3.98338V9.32104H2.41049ZM16.4707 19.0031H3.5295V15.2252H16.4707V19.0031H16.4707ZM17.2086 9.32104H15.6098V14.0648H14.2805V9.32104H12.7077V8.20889H17.2087V9.32104H17.2086Z" fill="#EFEFEF"/>
</svg>
