<svg width="18" height="18" viewBox="0 0 18 18" fill="none" xmlns="http://www.w3.org/2000/svg">
<path d="M6.25842 5.42495L8.16675 3.50829V11.5C8.16675 11.721 8.25455 11.9329 8.41083 12.0892C8.56711 12.2455 8.77907 12.3333 9.00008 12.3333C9.2211 12.3333 9.43306 12.2455 9.58934 12.0892C9.74562 11.9329 9.83342 11.721 9.83342 11.5V3.50829L11.7417 5.42495C11.8192 5.50306 11.9114 5.56506 12.0129 5.60736C12.1145 5.64967 12.2234 5.67145 12.3334 5.67145C12.4434 5.67145 12.5523 5.64967 12.6539 5.60736C12.7554 5.56506 12.8476 5.50306 12.9251 5.42495C13.0032 5.34749 13.0652 5.25532 13.1075 5.15377C13.1498 5.05222 13.1716 4.9433 13.1716 4.83329C13.1716 4.72328 13.1498 4.61436 13.1075 4.51281C13.0652 4.41126 13.0032 4.31909 12.9251 4.24162L9.59175 0.908288C9.5125 0.83242 9.41904 0.77295 9.31675 0.733288C9.11386 0.649939 8.8863 0.649939 8.68342 0.733288C8.58112 0.77295 8.48767 0.83242 8.40841 0.908288L5.07508 4.24162C4.99738 4.31932 4.93575 4.41156 4.8937 4.51308C4.85165 4.6146 4.83001 4.7234 4.83001 4.83329C4.83001 4.94317 4.85165 5.05198 4.8937 5.1535C4.93575 5.25501 4.99738 5.34726 5.07508 5.42495C5.15278 5.50265 5.24502 5.56429 5.34654 5.60634C5.44806 5.64839 5.55687 5.67003 5.66675 5.67003C5.77663 5.67003 5.88544 5.64839 5.98696 5.60634C6.08847 5.56429 6.18072 5.50265 6.25842 5.42495ZM16.5001 8.99995C16.2791 8.99995 16.0671 9.08775 15.9108 9.24403C15.7545 9.40031 15.6667 9.61227 15.6667 9.83329V14.8333C15.6667 15.0543 15.579 15.2663 15.4227 15.4225C15.2664 15.5788 15.0544 15.6666 14.8334 15.6666H3.16675C2.94573 15.6666 2.73377 15.5788 2.57749 15.4225C2.42121 15.2663 2.33341 15.0543 2.33341 14.8333V9.83329C2.33341 9.61227 2.24562 9.40031 2.08934 9.24403C1.93306 9.08775 1.7211 8.99995 1.50008 8.99995C1.27907 8.99995 1.06711 9.08775 0.910826 9.24403C0.754545 9.40031 0.666748 9.61227 0.666748 9.83329V14.8333C0.666748 15.4963 0.93014 16.1322 1.39898 16.6011C1.86782 17.0699 2.50371 17.3333 3.16675 17.3333H14.8334C15.4965 17.3333 16.1323 17.0699 16.6012 16.6011C17.07 16.1322 17.3334 15.4963 17.3334 14.8333V9.83329C17.3334 9.61227 17.2456 9.40031 17.0893 9.24403C16.9331 9.08775 16.7211 8.99995 16.5001 8.99995Z" fill="#008BD9"/>
</svg>
