<svg width="20" height="20" viewBox="0 0 20 20" fill="none" xmlns="http://www.w3.org/2000/svg">
<path d="M19.9943 19.3323L19.084 12.8706C18.8895 11.4899 17.838 10.39 16.4676 10.1336L12.7968 9.44665C13.6078 8.69438 14.1162 7.62028 14.1162 6.42954V4.12969C14.3725 3.81586 14.5292 3.39793 14.5292 2.93958C14.5292 1.31875 13.3836 0.00012207 11.9755 0.00012207H8.03287C6.62475 0.00012207 5.47916 1.31875 5.47916 2.93958C5.47916 3.39293 5.63244 3.80676 5.88377 4.11938V6.42954C5.88377 7.62028 6.39221 8.69438 7.20314 9.44665L3.5324 10.1335C2.16197 10.39 1.11053 11.4899 0.915995 12.8705L0.00572157 19.3323C-0.0179112 19.5004 0.0323622 19.6704 0.143651 19.7984C0.25494 19.9265 0.416268 20 0.585917 20H19.414C19.5837 20 19.745 19.9265 19.8563 19.7984C19.9676 19.6704 20.0179 19.5004 19.9943 19.3323ZM10.0042 14.1211C9.66904 14.1211 9.3617 14.0962 9.07877 14.0512L10.0042 11.6048L10.9306 14.0537C10.6402 14.0985 10.3314 14.1211 10.0042 14.1211ZM7.95225 13.717C6.46228 13.0259 6.04283 11.6199 5.92502 10.878L7.70076 10.5457H9.15185L7.95225 13.717ZM6.91685 14.4963C7.54537 14.8936 8.36146 15.1898 9.41826 15.2704V18.8282H6.3626L6.91685 14.4963ZM10.5901 15.2704C11.6481 15.1897 12.4649 14.893 13.0937 14.495L13.6576 18.8282H10.5901V15.2704ZM13.611 12.2723C13.2492 12.9331 12.73 13.4181 12.0592 13.7252L10.8564 10.5457H12.2991L14.0794 10.8788C14.0203 11.2404 13.8915 11.7599 13.611 12.2723ZM8.03287 1.17192H11.9755C12.7374 1.17192 13.3573 1.96485 13.3573 2.9395C13.3573 3.28766 13.1476 3.53032 12.9594 3.53032C11.326 3.53032 10.5128 2.6277 10.4581 2.56477C10.347 2.42641 10.1853 2.35356 10.0076 2.35356H10.0006C9.82303 2.35356 9.66127 2.42641 9.55014 2.56477C9.49553 2.62766 8.68232 3.53032 7.04893 3.53032C6.86072 3.53032 6.65096 3.28766 6.65096 2.9395C6.65103 1.96485 7.27092 1.17192 8.03287 1.17192ZM7.05564 6.4295V4.70211C8.50045 4.70036 9.48107 4.13942 10.0042 3.73036C10.5262 4.13864 11.5041 4.69809 12.9443 4.702V6.42946C12.9443 8.05297 11.6235 9.37379 9.99998 9.37379C8.37646 9.37379 7.05564 8.05297 7.05564 6.4295ZM2.07643 13.034C2.20068 12.152 2.8724 11.4493 3.74799 11.2854L4.77627 11.093C4.854 11.5558 5.01892 12.1947 5.36947 12.835C5.49861 13.0709 5.65873 13.3163 5.85561 13.5568L5.18115 18.8282H1.26017L2.07643 13.034ZM14.8394 18.8282L14.1532 13.5563C14.3499 13.3159 14.5099 13.0707 14.6389 12.835C14.989 12.1954 15.154 11.5572 15.2319 11.0945L16.252 11.2854C17.1276 11.4493 17.7993 12.152 17.9236 13.0341L18.7398 18.8282H14.8394Z" fill="#181818"/>
</svg>
