<svg width="28" height="28" viewBox="0 0 28 28" fill="none" xmlns="http://www.w3.org/2000/svg">
<path d="M22.1666 8.16667H20.9999V7C20.9999 6.07174 20.6312 5.1815 19.9748 4.52513C19.3184 3.86875 18.4282 3.5 17.4999 3.5H5.83325C4.90499 3.5 4.01476 3.86875 3.35838 4.52513C2.702 5.1815 2.33325 6.07174 2.33325 7V21C2.33325 21.9283 2.702 22.8185 3.35838 23.4749C4.01476 24.1313 4.90499 24.5 5.83325 24.5H22.1666C23.0948 24.5 23.9851 24.1313 24.6415 23.4749C25.2978 22.8185 25.6666 21.9283 25.6666 21V11.6667C25.6666 10.7384 25.2978 9.84817 24.6415 9.19179C23.9851 8.53542 23.0948 8.16667 22.1666 8.16667ZM5.83325 5.83333H17.4999C17.8093 5.83333 18.1061 5.95625 18.3249 6.17504C18.5437 6.39383 18.6666 6.69058 18.6666 7V8.16667H5.83325C5.52383 8.16667 5.22709 8.04375 5.00829 7.82496C4.7895 7.60616 4.66659 7.30942 4.66659 7C4.66659 6.69058 4.7895 6.39383 5.00829 6.17504C5.22709 5.95625 5.52383 5.83333 5.83325 5.83333ZM23.3333 17.5H22.1666C21.8572 17.5 21.5604 17.3771 21.3416 17.1583C21.1228 16.9395 20.9999 16.6428 20.9999 16.3333C20.9999 16.0239 21.1228 15.7272 21.3416 15.5084C21.5604 15.2896 21.8572 15.1667 22.1666 15.1667H23.3333V17.5ZM23.3333 12.8333H22.1666C21.2383 12.8333 20.3481 13.2021 19.6917 13.8585C19.0353 14.5148 18.6666 15.4051 18.6666 16.3333C18.6666 17.2616 19.0353 18.1518 19.6917 18.8082C20.3481 19.4646 21.2383 19.8333 22.1666 19.8333H23.3333V21C23.3333 21.3094 23.2103 21.6062 22.9915 21.825C22.7728 22.0438 22.476 22.1667 22.1666 22.1667H5.83325C5.52383 22.1667 5.22709 22.0438 5.00829 21.825C4.7895 21.6062 4.66659 21.3094 4.66659 21V10.3017C5.0414 10.4335 5.43592 10.5006 5.83325 10.5H22.1666C22.476 10.5 22.7728 10.6229 22.9915 10.8417C23.2103 11.0605 23.3333 11.3572 23.3333 11.6667V12.8333Z" fill="#1B57F0"/>
</svg>
