<?xml version="1.0" encoding="utf-8"?>
<!-- Generator: Adobe Illustrator 19.2.1, SVG Export Plug-In . SVG Version: 6.00 Build 0)  -->
<svg version="1.1" id="layer" xmlns="http://www.w3.org/2000/svg" xmlns:xlink="http://www.w3.org/1999/xlink" x="0px" y="0px"
	 viewBox="0 0 652 652" style="enable-background:new 0 0 652 652;" xml:space="preserve">
<style type="text/css">
	.st0{fill:#0054A1;}
</style>
<g>
	<path class="st0" d="M572.6,286.3c-10.9-2.9-23.8-5.8-34.7-8.8c-2.2-0.6-27.2-6.9-27.2-21.6c0-16.7,20.4-19.2,34.3-19.2
		c17,0,38.9,6.6,45.3,9.3c6.4,2.7,8.9,0.5,12.1-3.4l20-24c1.2-1.5,1.2-4.7-2.2-6.2c0,0-36.6-16.2-73.6-16.2c-19,0-34.8,1.3-50.3,7.9
		c-15.4,6.5-37.1,22.5-37.1,55.5c0,44.5,33.3,55.2,49.5,60.1c12.4,3.7,47.8,9.9,57.7,17.1c7.2,5.2,9.3,13.5,7.7,21.4
		c-1.9,9.3-12.5,17.3-37.8,17.3c-20.2,0-33.3-5.1-53-14.8c-5.1-2.5-5.8-2.6-8.8,1l-20.8,24.5c-3.1,3.7-5.4,6.6-0.2,9.7
		c9.9,5.8,52.1,23.2,88.5,23.2c40.9,0,84.1-16,84.1-68.9C626,324.8,616.5,297.9,572.6,286.3 M149.2,361.4
		c-8,10.9-19.2,16.4-33.7,16.4c-9.6,0-17.2-2.8-22.8-8.4c-5.6-5.6-8.4-13.1-8.4-22.6c0-12.7,4.1-21.7,12.2-26.9
		c8.1-5.2,33.9-7.2,33.9-7.2c4.9-0.4,13-0.7,17.9-0.7h3.9c4.9,0,9,1.2,9,5.4C161.2,334,157.2,350.5,149.2,361.4 M123.2,195.9
		c-43,0-71.7,12.4-78,15.1c-4,1.7-3.8,5-2.6,6.4l20,24c4.4,5.3,7,5.2,11.1,3.7c0.1,0,20.2-8.6,49.5-8.6c12.5,0,21.9,2.3,28.3,6.8
		c8.7,6.1,8.9,16.5,9.5,22.8c0.4,4.2-3.9,6.5-8.9,6.5h-29c-33.2,0-57.6,5.8-73.5,17.5C33.9,301.6,26,319.7,26,344.1
		c0,22.6,6.6,40.1,19.9,52.7c13.3,12.6,32.3,18.9,55.6,18.9c23.5,0,43-8.2,59.6-29c4.2-5.3,7-0.9,7-0.9l18.6,21.9
		c0,0,0.1,0.2,0.4,0.4c0.7,0.7,2.6,2.2,5.2,2.2h18.1c3.2,0,5-1.7,5.1-4.1V290.8c0-35.6-6.9-60.4-20.7-74.2
		C181.1,202.8,157.2,195.9,123.2,195.9 M462,204.8c2.8-3.3,1.6-6-2.8-6h-91.1c-3.2,0-7.1,2.4-8.6,5.3l-7.2,14.4l28.8,81.7L462,204.8
		L462,204.8z M440.5,450.8l-125.1-245c-2-3.9-7.1-7-11.4-7h-89.8c-4.3,0-5.6,2.7-2.8,6l86.7,103.9l-47.8,94.7c-2,3.9,0,7,4.3,7
		l25.4,0c3.5,0,5.6-2.6,5.6-2.6l48-56.6l82.9,99.5c0,0,4.5,5.6,9.6,5.6h10.9C438.6,456.4,443.4,456.5,440.5,450.8L440.5,450.8"/>
</g>
</svg>
