<svg xmlns="http://www.w3.org/2000/svg" width="24" height="24" fill="none"><g clip-path="url(#A)" fill="#f3ba2f"><path d="M7.339 10.085L12 5.424l4.663 4.663 2.712-2.712L12 0 4.627 7.373l2.712 2.712zM0 12l2.712-2.713L5.424 12l-2.712 2.712L0 12zm7.339 1.915L12 18.576l4.663-4.663 2.712 2.712L12 24l-7.377-7.377 2.716-2.708zm11.237-1.914l2.712-2.712L24 12.001l-2.712 2.712-2.712-2.712zm-3.825-.002h.001L12 9.247 9.247 12l2.754 2.754 2.75-2.755"/></g><defs><clipPath id="A"><path fill="#fff" d="M0 0h24v24H0z"/></clipPath></defs></svg>