<svg xmlns="http://www.w3.org/2000/svg" width="24" height="24" fill="none"  xmlns:v="https://vecta.io/nano"><g clip-path="url(#A)"><path d="M23.623 14.92A12 12 0 0 1 9.08 23.658 12 12 0 0 1 .344 9.116 12 12 0 0 1 14.885.377a12 12 0 0 1 8.738 14.544h0 0z" fill="#f7931a"/><path d="M17.292 10.288c.239-1.597-.977-2.455-2.639-3.028l.539-2.163-1.317-.328-.525 2.106-1.055-.248.529-2.12-1.316-.328-.54 2.162-.841-.198.002-.007-1.816-.453-.35 1.406.956.238c.533.133.63.486.614.766l-.614 2.464a1.07 1.07 0 0 1 .137.044l-.139-.034-.861 3.452c-.065.162-.231.405-.603.313.013.019-.957-.239-.957-.239L5.84 15.6l1.714.427.939.242-.545 2.188 1.315.328.54-2.165 1.049.272-.538 2.155 1.317.328.545-2.184c2.245.425 3.934.254 4.644-1.777.573-1.635-.028-2.578-1.21-3.193.86-.198 1.508-.764 1.681-1.933h0 0zm-3.009 4.219c-.407 1.635-3.16.751-4.053.53l.723-2.899c.893.223 3.755.664 3.33 2.369h0zm.407-4.242c-.371 1.487-2.663.732-3.406.547l.656-2.629c.743.185 3.137.531 2.751 2.083h0z" fill="#fff"/></g><defs><clipPath id="A"><path fill="#fff" d="M0 0h24v24H0z"/></clipPath></defs></svg>