<svg xmlns="http://www.w3.org/2000/svg" width="24" height="24" fill="none"  xmlns:v="https://vecta.io/nano"><g clip-path="url(#A)" fill="#ff007a"><path d="M10.173 5.461c-.26-.037-.272-.05-.149-.062.235-.037.78.012 1.164.099.892.211 1.697.755 2.551 1.709l.223.26.322-.05c1.375-.223 2.786-.05 3.963.495.322.149.83.446.892.52.025.025.062.186.087.347.087.582.05 1.015-.136 1.35-.099.186-.099.235-.037.396.049.124.198.21.334.21.297 0 .607-.471.755-1.127l.062-.26.111.124c.631.706 1.127 1.684 1.201 2.378l.025.186-.111-.161a2.09 2.09 0 0 0-.594-.632c-.421-.285-.867-.371-2.043-.434-1.065-.062-1.672-.149-2.266-.347-1.015-.334-1.536-.768-2.737-2.365-.533-.706-.867-1.09-1.201-1.412-.731-.706-1.461-1.077-2.415-1.226z"/><path d="M19.399 7.034c.025-.471.087-.78.223-1.065.05-.111.099-.211.111-.211s-.012.087-.049.186c-.099.272-.111.656-.05 1.09.087.557.124.632.718 1.238l.718.793.21.272-.21-.198c-.26-.248-.855-.718-.991-.78-.087-.05-.099-.05-.161.012-.05.05-.062.124-.062.483-.012.557-.087.904-.273 1.263-.099.186-.111.149-.025-.062.062-.161.074-.235.074-.768 0-1.077-.124-1.337-.879-1.771a9.55 9.55 0 0 0-.694-.359l-.334-.161c.025-.025.755.186 1.04.31.433.173.508.186.557.173.037-.037.062-.136.074-.446zm-8.718 1.845c-.52-.718-.854-1.833-.78-2.663l.025-.26.124.025a2.91 2.91 0 0 1 .793.297c.495.297.718.706.929 1.721l.186.755c.062.186.297.619.495.892.136.198.05.297-.26.272-.471-.05-1.102-.483-1.511-1.04zm8.087 5.387c-2.452-.991-3.319-1.845-3.319-3.294l.012-.384c.012 0 .099.074.211.161.495.396 1.053.57 2.601.793.904.136 1.424.235 1.895.396 1.499.495 2.427 1.511 2.65 2.885a5.01 5.01 0 0 1-.074 1.548c-.087.31-.334.879-.396.892-.012 0-.037-.062-.037-.161-.025-.52-.285-1.015-.718-1.399-.52-.446-1.189-.78-2.823-1.437zm-1.734.409c-.025-.186-.087-.421-.124-.52l-.062-.186.112.136c.161.186.285.409.396.718.087.235.087.31.087.694 0 .372-.012.458-.087.669a2.24 2.24 0 0 1-.52.83c-.446.458-1.028.706-1.858.817l-.941.074c-.929.05-1.548.149-2.105.347-.074.025-.149.049-.161.037-.025-.025.359-.248.669-.396.434-.211.879-.322 1.858-.495l1.102-.223c1.226-.384 1.833-1.338 1.635-2.502zm1.127 1.994c-.322-.706-.396-1.375-.223-2.006.025-.062.05-.124.074-.124a.53.53 0 0 1 .173.087c.149.099.458.272 1.251.706 1.003.545 1.573.966 1.969 1.449.347.421.557.904.656 1.498.062.334.025 1.139-.062 1.474-.272 1.053-.892 1.895-1.796 2.378-.136.074-.248.124-.26.124s.037-.124.111-.272c.297-.632.334-1.238.111-1.919-.136-.421-.421-.929-.991-1.783l-1.015-1.61zm-9.226 3.789c.916-.768 2.043-1.313 3.084-1.486.446-.074 1.189-.05 1.598.062.656.173 1.251.545 1.56 1.003.297.446.433.83.57 1.684l.124.756c.099.446.297.793.545.978.384.285 1.053.297 1.709.049.111-.037.211-.074.211-.062.025.025-.31.248-.532.359-.31.161-.557.211-.892.211-.594 0-1.102-.31-1.511-.929-.087-.124-.26-.483-.409-.817-.433-1.003-.656-1.3-1.164-1.635-.446-.285-1.015-.347-1.449-.136-.57.273-.718 1.003-.322 1.449a1.27 1.27 0 0 0 .706.372c.458.062.854-.297.854-.755 0-.297-.111-.471-.409-.607-.396-.173-.83.025-.817.409 0 .161.074.26.235.334.099.049.099.049.025.037-.359-.074-.446-.52-.161-.805.347-.347 1.077-.198 1.325.285.099.198.112.594.025.842-.21.545-.805.83-1.412.669-.409-.111-.582-.223-1.077-.731-.867-.892-1.201-1.065-2.44-1.251l-.235-.037.26-.248z"/><g fill-rule="evenodd"><path d="M2.421.533l7.554 9.251c.186.248.111.483-.198.656a1.9 1.9 0 0 1-.706.198c-.198 0-.433-.099-.594-.26-.111-.111-.594-.817-1.684-2.514l-1.548-2.39c-.05-.025-.05-.025 1.461 2.675l1.263 2.378c0 .161-.05.248-.248.471-.334.371-.483.793-.594 1.672-.124.978-.458 1.672-1.412 2.848-.557.694-.644.817-.78 1.102a2.1 2.1 0 0 0-.248.991c-.025.471.025.768.161 1.214.124.396.26.656.594 1.164.285.446.458.78.458.904 0 .099.025.099.471 0 1.065-.248 1.944-.669 2.427-1.189.297-.322.372-.495.372-.941 0-.285-.012-.347-.087-.52-.124-.272-.359-.495-.867-.842-.669-.458-.954-.83-1.028-1.325-.062-.421.012-.706.384-1.486.384-.805.483-1.139.545-1.957.037-.52.099-.731.248-.892.161-.173.297-.235.681-.285.632-.087 1.04-.248 1.362-.557a1.16 1.16 0 0 0 .421-.904l.012-.285-.161-.173C10.099 8.867 2.037 0 2 0c-.012 0 .186.235.421.533zm3.802 17.61a.51.51 0 0 0-.161-.681c-.211-.136-.533-.074-.533.111 0 .049.025.099.099.124.111.062.124.124.037.26s-.087.26.025.347c.173.136.409.062.532-.161zm5.015-6.514c-.297.087-.582.409-.669.731-.05.198-.025.557.062.669.136.173.26.223.607.223.681 0 1.263-.297 1.325-.656.062-.297-.198-.706-.557-.892a1.26 1.26 0 0 0-.768-.074zm.793.619c.099-.149.062-.31-.124-.421-.334-.21-.842-.037-.842.285 0 .161.26.334.508.334.161 0 .384-.099.458-.198z"/></g></g><defs><clipPath id="A"><path fill="#fff" d="M0 0h24v24H0z"/></clipPath></defs></svg>