<svg xmlns="http://www.w3.org/2000/svg" width="24" height="24" fill="none"  fill-rule="evenodd" xmlns:v="https://vecta.io/nano"><path d="M4.394 2.103L.018 11.294c-.017.034-.022.073-.015.11s.026.072.053.098l11.819 11.325a.18.18 0 0 0 .25 0l11.819-11.324c.028-.026.046-.06.053-.098s.002-.076-.015-.11l-4.376-9.192c-.014-.031-.037-.057-.065-.075S19.478 2 19.444 2H4.557c-.034 0-.068.009-.096.027s-.052.044-.066.075z" fill="#50af95"/><path d="M13.518 12.238c-.085.006-.523.033-1.501.033a32.76 32.76 0 0 1-1.524-.033c-3.006-.132-5.249-.655-5.249-1.282s2.244-1.149 5.249-1.283v2.044l1.537.047 1.485-.047V9.675c2.999.134 5.238.657 5.238 1.282s-2.238 1.148-5.238 1.281h.003zm0-2.775V7.634h4.186V4.845H6.308v2.789h4.185v1.828c-3.402.156-5.96.83-5.96 1.638s2.558 1.481 5.96 1.638v5.862h3.025v-5.864c3.394-.156 5.948-.829 5.948-1.636s-2.552-1.48-5.948-1.637v.001z" fill="#fff"/></svg>