<svg width="20" height="20" viewBox="0 0 20 20" fill="none" xmlns="http://www.w3.org/2000/svg">
<path d="M12.5003 9.16675H10.8337V5.83342C10.8337 5.6124 10.7459 5.40044 10.5896 5.24416C10.4333 5.08788 10.2213 5.00008 10.0003 5.00008C9.77932 5.00008 9.56735 5.08788 9.41107 5.24416C9.25479 5.40044 9.167 5.6124 9.167 5.83342V10.0001C9.167 10.2211 9.25479 10.4331 9.41107 10.5893C9.56735 10.7456 9.77932 10.8334 10.0003 10.8334H12.5003C12.7213 10.8334 12.9333 10.7456 13.0896 10.5893C13.2459 10.4331 13.3337 10.2211 13.3337 10.0001C13.3337 9.77907 13.2459 9.56711 13.0896 9.41083C12.9333 9.25455 12.7213 9.16675 12.5003 9.16675ZM10.0003 1.66675C8.35215 1.66675 6.74099 2.15549 5.37058 3.07117C4.00017 3.98685 2.93206 5.28834 2.30133 6.81105C1.6706 8.33377 1.50558 10.0093 1.82712 11.6258C2.14866 13.2423 2.94234 14.7272 4.10777 15.8926C5.27321 17.0581 6.75807 17.8517 8.37458 18.1733C9.99109 18.4948 11.6666 18.3298 13.1894 17.6991C14.7121 17.0683 16.0136 16.0002 16.9292 14.6298C17.8449 13.2594 18.3337 11.6483 18.3337 10.0001C18.3337 8.90573 18.1181 7.8221 17.6993 6.81105C17.2805 5.80001 16.6667 4.88135 15.8929 4.10752C15.1191 3.3337 14.2004 2.71987 13.1894 2.30109C12.1783 1.8823 11.0947 1.66675 10.0003 1.66675ZM10.0003 16.6667C8.68179 16.6667 7.39286 16.2758 6.29653 15.5432C5.2002 14.8107 4.34572 13.7695 3.84113 12.5513C3.33655 11.3331 3.20453 9.99269 3.46176 8.69948C3.719 7.40627 4.35393 6.21839 5.28628 5.28604C6.21863 4.35369 7.40652 3.71875 8.69973 3.46151C9.99293 3.20428 11.3334 3.3363 12.5516 3.84088C13.7697 4.34547 14.8109 5.19995 15.5435 6.29628C16.276 7.39261 16.667 8.68154 16.667 10.0001C16.667 11.7682 15.9646 13.4639 14.7144 14.7141C13.4641 15.9644 11.7684 16.6667 10.0003 16.6667Z" fill="#FFAE74"/>
</svg>
