<svg width="6" height="10" viewBox="0 0 6 10" fill="none" xmlns="http://www.w3.org/2000/svg">
<path d="M0.999995 9.99547C1.13133 9.99562 1.2614 9.96981 1.38274 9.91953C1.50407 9.86925 1.61426 9.79548 1.707 9.70247L5.707 5.70247C5.79988 5.60964 5.87356 5.49942 5.92383 5.3781C5.97409 5.25679 5.99997 5.12676 5.99997 4.99544C5.99997 4.86412 5.97409 4.73409 5.92383 4.61278C5.87356 4.49146 5.79988 4.38124 5.707 4.28841L1.707 0.288411C1.51907 0.102849 1.26537 -0.000831545 1.00128 5.02347e-06C0.737181 0.000841592 0.484141 0.106127 0.2974 0.292876C0.11066 0.479625 0.00538492 0.732669 0.00455952 0.996765C0.00373411 1.26086 0.107424 1.51456 0.292994 1.70247L3.58594 4.99547L0.292935 8.28847C0.153122 8.42833 0.0579147 8.6065 0.0193491 8.80045C-0.0192165 8.99441 0.000590801 9.19545 0.0762682 9.37815C0.151946 9.56086 0.280095 9.71702 0.444514 9.8269C0.608933 9.93678 0.80224 9.99544 0.999995 9.99547Z" fill="#181818"/>
</svg>
