<svg width="6" height="10" viewBox="0 0 6 10" fill="none" xmlns="http://www.w3.org/2000/svg">
<path d="M5 9.99547C4.86867 9.99562 4.7386 9.96981 4.61726 9.91953C4.49593 9.86925 4.38574 9.79548 4.293 9.70247L0.293005 5.70247C0.200124 5.60964 0.126444 5.49942 0.0761747 5.3781C0.0259052 5.25679 3.05176e-05 5.12676 3.05176e-05 4.99544C3.05176e-05 4.86412 0.0259052 4.73409 0.0761747 4.61278C0.126444 4.49146 0.200124 4.38124 0.293005 4.28841L4.293 0.288411C4.48093 0.102849 4.73463 -0.000831545 4.99872 5.02347e-06C5.26282 0.000841592 5.51586 0.106127 5.7026 0.292876C5.88934 0.479625 5.99462 0.732669 5.99544 0.996765C5.99627 1.26086 5.89258 1.51456 5.70701 1.70247L2.41406 4.99547L5.70706 8.28847C5.84688 8.42833 5.94209 8.6065 5.98065 8.80045C6.01922 8.99441 5.99941 9.19545 5.92373 9.37815C5.84805 9.56086 5.7199 9.71702 5.55549 9.8269C5.39107 9.93678 5.19776 9.99544 5 9.99547Z" fill="#9A9A9A"/>
</svg>
