<svg width="10" height="10" viewBox="0 0 10 10" fill="none" xmlns="http://www.w3.org/2000/svg">
<path d="M3.145 5.645C3.09814 5.69148 3.06094 5.74678 3.03555 5.80771C3.01017 5.86864 2.9971 5.93399 2.9971 6C2.9971 6.06601 3.01017 6.13136 3.03555 6.19229C3.06094 6.25322 3.09814 6.30852 3.145 6.355L4.645 7.855C4.69148 7.90186 4.74678 7.93906 4.80771 7.96445C4.86864 7.98983 4.93399 8.0029 5 8.0029C5.06601 8.0029 5.13136 7.98983 5.19229 7.96445C5.25322 7.93906 5.30852 7.90186 5.355 7.855L6.855 6.355C6.94915 6.26085 7.00205 6.13315 7.00205 6C7.00205 5.86685 6.94915 5.73915 6.855 5.645C6.76085 5.55085 6.63315 5.49795 6.5 5.49795C6.36685 5.49795 6.23915 5.55085 6.145 5.645L5.5 6.295V0.5C5.5 0.367392 5.44732 0.240215 5.35355 0.146447C5.25979 0.0526784 5.13261 0 5 0C4.86739 0 4.74021 0.0526784 4.64645 0.146447C4.55268 0.240215 4.5 0.367392 4.5 0.5V6.295L3.855 5.645C3.80852 5.59814 3.75322 5.56094 3.69229 5.53555C3.63136 5.51017 3.56601 5.4971 3.5 5.4971C3.43399 5.4971 3.36864 5.51017 3.30771 5.53555C3.24678 5.56094 3.19148 5.59814 3.145 5.645ZM8 3.5H7C6.86739 3.5 6.74021 3.55268 6.64645 3.64645C6.55268 3.74022 6.5 3.86739 6.5 4C6.5 4.13261 6.55268 4.25979 6.64645 4.35355C6.74021 4.44732 6.86739 4.5 7 4.5H8C8.13261 4.5 8.25979 4.55268 8.35355 4.64645C8.44732 4.74022 8.5 4.86739 8.5 5V8.5C8.5 8.63261 8.44732 8.75979 8.35355 8.85355C8.25979 8.94732 8.13261 9 8 9H2C1.86739 9 1.74021 8.94732 1.64645 8.85355C1.55268 8.75979 1.5 8.63261 1.5 8.5V5C1.5 4.86739 1.55268 4.74022 1.64645 4.64645C1.74021 4.55268 1.86739 4.5 2 4.5H3C3.13261 4.5 3.25979 4.44732 3.35355 4.35355C3.44732 4.25979 3.5 4.13261 3.5 4C3.5 3.86739 3.44732 3.74022 3.35355 3.64645C3.25979 3.55268 3.13261 3.5 3 3.5H2C1.60218 3.5 1.22064 3.65804 0.93934 3.93934C0.658035 4.22064 0.5 4.60218 0.5 5V8.5C0.5 8.89783 0.658035 9.27936 0.93934 9.56066C1.22064 9.84197 1.60218 10 2 10H8C8.39782 10 8.77936 9.84197 9.06066 9.56066C9.34196 9.27936 9.5 8.89783 9.5 8.5V5C9.5 4.60218 9.34196 4.22064 9.06066 3.93934C8.77936 3.65804 8.39782 3.5 8 3.5Z" fill="#287DCC"/>
</svg>
