<svg width="10" height="10" viewBox="0 0 10 10" fill="none" xmlns="http://www.w3.org/2000/svg">
<g clip-path="url(#clip0)">
<path d="M5 10C7.75686 10 10 7.75706 10 5C10 3.66333 9.48018 2.40753 8.53627 1.46372C7.59226 0.519816 6.33667 0 5 0C2.24294 0 0 2.24294 0 5C0 6.33667 0.519816 7.59247 1.46372 8.53627C2.40753 9.48018 3.66333 10 5 10ZM5 9.16667C4.02629 9.16667 3.10415 8.83565 2.36206 8.22713L8.22713 2.36206C8.83565 3.10415 9.16667 4.02629 9.16667 5C9.16667 7.29746 7.29746 9.16667 5 9.16667ZM5 0.833333C5.97351 0.833333 6.89585 1.16435 7.63774 1.77287L1.77287 7.63794C1.16435 6.89585 0.833333 5.97371 0.833333 5C0.833333 2.70253 2.70253 0.833333 5 0.833333Z" fill="#D115BE"/>
</g>
<defs>
<clipPath id="clip0">
<rect width="10" height="10" fill="white"/>
</clipPath>
</defs>
</svg>
