<svg width="5" height="9" viewBox="0 0 5 9" fill="none" xmlns="http://www.w3.org/2000/svg">
<path d="M1.73859 6.24609C1.74681 5.78125 1.8023 5.41406 1.90506 5.14453C2.00781 4.875 2.21743 4.57617 2.53391 4.24805L3.34155 3.45703C3.68681 3.08594 3.85943 2.6875 3.85943 2.26172C3.85943 1.85156 3.7464 1.53125 3.52035 1.30078C3.29429 1.06641 2.96547 0.949219 2.53391 0.949219C2.11467 0.949219 1.77764 1.05469 1.52281 1.26562C1.26798 1.47656 1.14057 1.75977 1.14057 2.11523H0C0.0082203 1.48242 0.244554 0.972656 0.709001 0.585938C1.17756 0.195312 1.78586 0 2.53391 0C3.31073 0 3.91492 0.199219 4.34649 0.597656C4.78216 0.992188 5 1.53516 5 2.22656C5 2.91016 4.66708 3.58398 4.00123 4.24805L3.32922 4.88086C3.02918 5.19727 2.87916 5.65234 2.87916 6.24609H1.73859ZM1.68927 8.10352C1.68927 7.92773 1.74476 7.78125 1.85573 7.66406C1.97082 7.54297 2.13933 7.48242 2.36128 7.48242C2.58323 7.48242 2.75175 7.54297 2.86683 7.66406C2.98192 7.78125 3.03946 7.92773 3.03946 8.10352C3.03946 8.2793 2.98192 8.42578 2.86683 8.54297C2.75175 8.65625 2.58323 8.71289 2.36128 8.71289C2.13933 8.71289 1.97082 8.65625 1.85573 8.54297C1.74476 8.42578 1.68927 8.2793 1.68927 8.10352Z" fill="#F59338"/>
</svg>
