<svg width="16" height="11" viewBox="0 0 16 11" fill="none" xmlns="http://www.w3.org/2000/svg">
<path d="M15.9995 5.14025C15.9995 5.45567 15.7435 5.71165 15.4281 5.71165L0.571412 5.71165C0.255993 5.71165 0 5.45567 0 5.14025C0 4.82484 0.255993 4.56885 0.571412 4.56885L15.4281 4.56885C15.7435 4.56885 15.9995 4.82484 15.9995 5.14025Z" fill="#1B57F0"/>
<path d="M16.0004 5.14184C16.0004 5.28813 15.9444 5.43441 15.8335 5.5464L11.2622 10.1177C11.0394 10.3405 10.6771 10.3405 10.4542 10.1177C10.2314 9.89485 10.2314 9.53257 10.4542 9.30972L14.621 5.14184L10.4542 0.975109C10.2314 0.752258 10.2314 0.389983 10.4542 0.167132C10.6771 -0.0557184 11.0394 -0.0557184 11.2622 0.167132L15.8335 4.73843C15.9444 4.84928 16.0004 4.99556 16.0004 5.14184Z" fill="#1B57F0"/>
</svg>
