<svg width="10" height="12" viewBox="0 0 10 12" fill="none" xmlns="http://www.w3.org/2000/svg">
<path d="M7.36621 0H1.03809C0.84393 0 0.686523 0.157406 0.686523 0.351562V8.10938C0.686523 8.30353 0.84393 8.46094 1.03809 8.46094H3.19865C2.62698 9.74044 3.19567 10.7725 3.88312 11.8036C3.89371 11.814 3.97989 12 4.20215 12H8.06934C8.23087 12 8.37161 11.8899 8.41054 11.7332L9.25996 8.31204C9.41812 7.67937 9.21527 7.01536 8.73053 6.57914L7.71777 5.66766V0.351562C7.71777 0.157406 7.56037 0 7.36621 0ZM1.38965 0.703125H7.01465V7.75781H5.76051C5.66048 7.4869 5.6084 7.19944 5.6084 6.90626V5.98955C5.6084 5.4128 5.14169 4.94529 4.56074 4.94531H4.54312C3.96742 4.94534 3.49926 5.41378 3.49926 5.98952L3.49921 7.27981C3.49921 7.4347 3.48121 7.59434 3.44601 7.75781H1.38965V0.703125ZM8.26019 7.10177C8.551 7.3635 8.67274 7.76194 8.57772 8.14207L7.79439 11.2969H4.39084C3.80866 10.4108 3.42182 9.64327 3.85773 8.71003C4.06776 8.26034 4.2021 7.7723 4.2021 7.27981L4.20215 5.98952C4.20215 5.80146 4.35513 5.64844 4.54314 5.64844H4.56074C4.75405 5.64844 4.90527 5.80242 4.90527 5.98955V6.90626C4.90527 7.533 5.08905 8.13989 5.4367 8.66135L5.66746 9.0075C5.77516 9.16908 5.99343 9.2127 6.15498 9.10502C6.31654 8.99733 6.3602 8.77905 6.25249 8.6175L6.14812 8.46094H7.36621C7.56037 8.46094 7.71777 8.30353 7.71777 8.10938V6.61359L8.26019 7.10177Z" fill="#22B59A"/>
<path d="M3.602 3.7642C3.67065 3.83285 3.76062 3.86719 3.85058 3.86719C3.94053 3.86719 4.03053 3.83288 4.09916 3.7642L5.73245 2.13091C5.86974 1.99362 5.86974 1.77103 5.73245 1.63373C5.59517 1.49644 5.37256 1.49644 5.23527 1.63373L3.85058 3.01842L3.04449 2.21236C2.90722 2.07506 2.68461 2.07506 2.54731 2.21236C2.41001 2.34966 2.41001 2.57224 2.54731 2.70954L3.602 3.7642Z" fill="#22B59A"/>
</svg>
