<?xml version="1.0" encoding="UTF-8"?>
<svg width="2000px" height="1996px" viewBox="0 0 2000 1996" version="1.1" xmlns="http://www.w3.org/2000/svg" xmlns:xlink="http://www.w3.org/1999/xlink">
    <!-- Generator: Sketch 64 (93537) - https://sketch.com -->
    <title>Group 2</title>
    <desc>Created with Sketch.</desc>
    <defs>
        <linearGradient x1="0%" y1="0%" x2="0%" y2="100%" id="linearGradient-1">
            <stop stop-color="#F0F7FF" offset="0%"></stop>
            <stop stop-color="#9ECBFF" offset="100%"></stop>
        </linearGradient>
        <linearGradient x1="0%" y1="0%" x2="0%" y2="100%" id="linearGradient-2">
            <stop stop-color="#9ECBFF" offset="0%"></stop>
            <stop stop-color="#F0F7FF" offset="100%"></stop>
        </linearGradient>
        <linearGradient x1="0%" y1="100%" x2="100%" y2="100%" id="linearGradient-3">
            <stop stop-color="#F0F7FF" offset="0%"></stop>
            <stop stop-color="#9ECBFF" offset="100%"></stop>
        </linearGradient>
        <linearGradient x1="0%" y1="100%" x2="100%" y2="100%" id="linearGradient-4">
            <stop stop-color="#F0F7FF" offset="0%"></stop>
            <stop stop-color="#9ECBFF" offset="100%"></stop>
        </linearGradient>
        <linearGradient x1="0%" y1="100%" x2="100%" y2="100%" id="linearGradient-5">
            <stop stop-color="#F0F7FF" offset="0%"></stop>
            <stop stop-color="#9ECBFF" offset="100%"></stop>
        </linearGradient>
        <linearGradient x1="0%" y1="0%" x2="0%" y2="100%" id="linearGradient-6">
            <stop stop-color="#F0F7FF" offset="0%"></stop>
            <stop stop-color="#9ECBFF" offset="100%"></stop>
        </linearGradient>
        <linearGradient x1="0%" y1="0%" x2="0%" y2="100%" id="linearGradient-7">
            <stop stop-color="#9ECBFF" offset="0%"></stop>
            <stop stop-color="#F0F7FF" offset="100%"></stop>
        </linearGradient>
        <linearGradient x1="0%" y1="0%" x2="0%" y2="100%" id="linearGradient-8">
            <stop stop-color="#F0F7FF" offset="0%"></stop>
            <stop stop-color="#9ECBFF" offset="100%"></stop>
        </linearGradient>
        <linearGradient x1="0%" y1="0%" x2="0%" y2="100%" id="linearGradient-9">
            <stop stop-color="#9ECBFF" offset="0%"></stop>
            <stop stop-color="#F0F7FF" offset="100%"></stop>
        </linearGradient>
    </defs>
    <g id="Page-1" stroke="none" stroke-width="1" fill="none" fillRule="evenodd">
        <g id="Group-2" transform="translate(0.000000, -2.000000)">
            <g id="Group">
                <g id="MNX" transform="translate(189.054726, 0.000000)">
                    <path d="M1803.75224,886.20199 L1615.89154,886.20199 C1563.35423,520.022886 1265.34428,233.057711 894.000995,197.246766 L894.000995,10.3711443 C1368.32935,47.3860697 1749.32438,417.047761 1803.75224,886.20199" id="Fill-425" fill="#00AEEF"></path>
                    <path d="M1808.52836,1065.30647 C1777.68259,1559.43582 1386.0408,1955.85373 894.000995,1994.25174 L894.000995,1807.39602 C1283.15522,1769.88358 1591.71244,1456.5403 1621.76219,1065.30647 L1808.52836,1065.30647 Z" id="Fill-426" fill="#00AEEF"></path>
                    <path d="M1810.5204,1002.3204 C1810.5204,1023.51443 1809.82388,1044.50945 1808.53035,1065.30547 L1621.76418,1065.30547 C1591.71443,1456.5393 1283.15721,1769.88259 894.002985,1807.39502 L894.002985,1994.25075 C868.132338,1996.3403 841.963184,1997.34527 815.495522,1997.34527 C781.565174,1997.34527 748.032836,1995.65373 714.898507,1992.27065 L714.898507,1805.00697 C315.595025,1755.44478 6.639801,1414.95721 6.639801,1002.3204 C6.639801,589.673632 315.595025,249.18607 714.898507,199.633831 L714.898507,12.3701493 C748.032836,8.98706468 781.565174,7.29552239 815.495522,7.29552239 C841.963184,7.29552239 868.132338,8.29054726 894.002985,10.3800995 L894.002985,197.245771 C1265.34627,233.056716 1563.35622,520.021891 1615.89353,886.200995 L1803.75423,886.200995 C1808.23184,924.310448 1810.5204,963.016915 1810.5204,1002.3204" id="Fill-427" fill="#FFFFFF"></path>
                </g>
                <g id="MNX" transform="translate(905.472637, 1000.000000) rotate(180.000000) translate(-905.472637, -1000.000000) ">
                    <path d="M1803.75224,886.20199 L1615.89154,886.20199 C1563.35423,520.022886 1265.34428,233.057711 894.000995,197.246766 L894.000995,10.3711443 C1368.32935,47.3860697 1749.32438,417.047761 1803.75224,886.20199" id="Fill-425" fill="#00AEEF"></path>
                    <path d="M1808.52836,1065.30647 C1777.68259,1559.43582 1386.0408,1955.85373 894.000995,1994.25174 L894.000995,1807.39602 C1283.15522,1769.88358 1591.71244,1456.5403 1621.76219,1065.30647 L1808.52836,1065.30647 Z" id="Fill-426" fill="#00AEEF"></path>
                    <path d="M1810.5204,1002.3204 C1810.5204,1023.51443 1809.82388,1044.50945 1808.53035,1065.30547 L1621.76418,1065.30547 C1591.71443,1456.5393 1283.15721,1769.88259 894.002985,1807.39502 L894.002985,1994.25075 C868.132338,1996.3403 841.963184,1997.34527 815.495522,1997.34527 C781.565174,1997.34527 748.032836,1995.65373 714.898507,1992.27065 L714.898507,1805.00697 C315.595025,1755.44478 6.639801,1414.95721 6.639801,1002.3204 C6.639801,589.673632 315.595025,249.18607 714.898507,199.633831 L714.898507,12.3701493 C748.032836,8.98706468 781.565174,7.29552239 815.495522,7.29552239 C841.963184,7.29552239 868.132338,8.29054726 894.002985,10.3800995 L894.002985,197.245771 C1265.34627,233.056716 1563.35622,520.021891 1615.89353,886.200995 L1803.75423,886.200995 C1808.23184,924.310448 1810.5204,963.016915 1810.5204,1002.3204" id="Fill-427" fill="#FFFFFF"></path>
                </g>
            </g>
            <rect id="Rectangle" fill="#1B70F0" fillRule="nonzero" x="587.064677" y="557.21393" width="875.621891" height="875.621891" rx="20"></rect>
            <g id="Group" transform="translate(815.920398, 865.671642)" fill="#FFFFFF" fillRule="nonzero">
                <path d="M110.40796,1.76751924e-14 C144.689552,1.76751924e-14 171.661692,10.0825871 191.323383,30.2487562 C211.236816,50.1621891 221.19403,79.0248756 221.19403,116.835821 L221.19403,266.945274 L193.59204,266.945274 L193.59204,189.054726 L27.2238806,189.054726 L27.2238806,266.945274 L-5.30255773e-14,266.945274 L-5.30255773e-14,116.835821 C-5.30255773e-14,79.0248756 9.83084577,50.1621891 29.4925373,30.2487562 C49.4059701,10.0825871 76.3781095,1.76751924e-14 110.40796,1.76751924e-14 Z M193.59204,164.855721 L193.59204,114.189055 C193.59204,84.6965174 186.281592,62.5144279 171.661692,47.641791 C157.041791,32.5174129 136.623881,24.9552239 110.40796,24.9552239 C84.1920398,24.9552239 63.7741294,32.5174129 49.1542289,47.641791 C34.5343284,62.5144279 27.2238806,84.6965174 27.2238806,114.189055 L27.2238806,164.855721 L193.59204,164.855721 Z" id="Shape"></path>
                <polygon id="Path" points="359.877612 26.4676617 359.877612 242.746269 413.569154 242.746269 413.569154 266.945274 278.58408 266.945274 278.58408 242.746269 332.275622 242.746269 332.275622 26.4676617 278.58408 26.4676617 278.58408 2.26865672 413.569154 2.26865672 413.569154 26.4676617"></polygon>
            </g>
            <path d="M865.671642,477.61194 C876.662687,477.61194 885.572139,486.521393 885.572139,497.512438 L885.572139,616.915423 C885.572139,627.906468 876.662687,636.81592 865.671642,636.81592 C854.680597,636.81592 845.771144,627.906468 845.771144,616.915423 L845.771144,497.512438 C845.771144,486.521393 854.680597,477.61194 865.671642,477.61194 Z" id="Path" fill="url(#linearGradient-1)"></path>
            <path d="M865.671642,1353.23383 C876.662687,1353.23383 885.572139,1362.1393 885.572139,1373.13433 L885.572139,1492.53731 C885.572139,1503.53234 876.662687,1512.43781 865.671642,1512.43781 C854.680597,1512.43781 845.771144,1503.53234 845.771144,1492.53731 L845.771144,1373.13433 C845.771144,1362.1393 854.680597,1353.23383 865.671642,1353.23383 Z" id="Path" fill="url(#linearGradient-2)"></path>
            <g id="Group-3" transform="translate(507.462687, 805.970149)">
                <path d="M0,19.9004975 C0,8.90945274 8.90945274,0 19.9004975,0 L99.5024876,0 C110.493532,0 119.402985,8.90945274 119.402985,19.9004975 C119.402985,30.8915423 110.493532,39.800995 99.5024876,39.800995 L19.9004975,39.800995 C8.90945274,39.800995 0,30.8915423 0,19.9004975 Z" id="Path" fill="url(#linearGradient-3)"></path>
                <path d="M0,179.104478 C0,168.113433 8.90945274,159.20398 19.9004975,159.20398 L139.303483,159.20398 C150.294527,159.20398 159.20398,168.113433 159.20398,179.104478 C159.20398,190.095522 150.294527,199.004975 139.303483,199.004975 L19.9004975,199.004975 C8.90945274,199.004975 0,190.095522 0,179.104478 Z" id="Path" fill="url(#linearGradient-4)"></path>
                <path d="M0,338.308458 C0,327.317413 8.90945274,318.40796 19.9004975,318.40796 L119.402985,318.40796 C130.39403,318.40796 139.303483,327.317413 139.303483,338.308458 C139.303483,349.299502 130.39403,358.208955 119.402985,358.208955 L19.9004975,358.208955 C8.90945274,358.208955 0,349.299502 0,338.308458 Z" id="Path" fill="url(#linearGradient-5)"></path>
            </g>
            <g id="Group-3" transform="translate(1462.686567, 985.074627) rotate(180.000000) translate(-1462.686567, -985.074627) translate(1383.084577, 805.970149)">
                <path d="M0,19.9004975 C0,8.90945274 8.90945274,0 19.9004975,0 L99.5024876,0 C110.493532,0 119.402985,8.90945274 119.402985,19.9004975 C119.402985,30.8915423 110.493532,39.800995 99.5024876,39.800995 L19.9004975,39.800995 C8.90945274,39.800995 0,30.8915423 0,19.9004975 Z" id="Path" fill="url(#linearGradient-3)"></path>
                <path d="M0,179.104478 C0,168.113433 8.90945274,159.20398 19.9004975,159.20398 L139.303483,159.20398 C150.294527,159.20398 159.20398,168.113433 159.20398,179.104478 C159.20398,190.095522 150.294527,199.004975 139.303483,199.004975 L19.9004975,199.004975 C8.90945274,199.004975 0,190.095522 0,179.104478 Z" id="Path" fill="url(#linearGradient-4)"></path>
                <path d="M0,338.308458 C0,327.317413 8.90945274,318.40796 19.9004975,318.40796 L119.402985,318.40796 C130.39403,318.40796 139.303483,327.317413 139.303483,338.308458 C139.303483,349.299502 130.39403,358.208955 119.402985,358.208955 L19.9004975,358.208955 C8.90945274,358.208955 0,349.299502 0,338.308458 Z" id="Path" fill="url(#linearGradient-5)"></path>
            </g>
            <path d="M1024.87562,477.61194 C1035.86667,477.61194 1044.77612,486.521393 1044.77612,497.512438 L1044.77612,587.064677 C1044.77612,598.055721 1035.86667,606.965174 1024.87562,606.965174 C1013.88458,606.965174 1004.97512,598.055721 1004.97512,587.064677 L1004.97512,497.512438 C1004.97512,486.521393 1013.88458,477.61194 1024.87562,477.61194 Z" id="Path" fill="url(#linearGradient-6)"></path>
            <path d="M1024.87562,1373.13433 C1035.86667,1373.13433 1044.77612,1382.0398 1044.77612,1393.03483 L1044.77612,1482.58706 C1044.77612,1493.58209 1035.86667,1502.48756 1024.87562,1502.48756 C1013.88458,1502.48756 1004.97512,1493.58209 1004.97512,1482.58706 L1004.97512,1393.03483 C1004.97512,1382.0398 1013.88458,1373.13433 1024.87562,1373.13433 Z" id="Path" fill="url(#linearGradient-7)"></path>
            <path d="M1184.0796,477.61194 C1195.07065,477.61194 1203.9801,486.521393 1203.9801,497.512438 L1203.9801,577.114428 C1203.9801,588.105473 1195.07065,597.014925 1184.0796,597.014925 C1173.08856,597.014925 1164.1791,588.105473 1164.1791,577.114428 L1164.1791,497.512438 C1164.1791,486.521393 1173.08856,477.61194 1184.0796,477.61194 Z" id="Path" fill="url(#linearGradient-8)"></path>
            <path d="M1184.0796,1383.08458 C1195.07065,1383.08458 1203.9801,1391.99005 1203.9801,1402.98507 L1203.9801,1482.58706 C1203.9801,1493.58209 1195.07065,1502.48756 1184.0796,1502.48756 C1173.08856,1502.48756 1164.1791,1493.58209 1164.1791,1482.58706 L1164.1791,1402.98507 C1164.1791,1391.99005 1173.08856,1383.08458 1184.0796,1383.08458 Z" id="Path" fill="url(#linearGradient-9)"></path>
        </g>
    </g>
</svg>