<?xml version="1.0" encoding="utf-8"?>
<!-- Generator: Adobe Illustrator 26.0.0, SVG Export Plug-In . SVG Version: 6.00 Build 0)  -->
<svg version="1.1" id="Layer_1" xmlns="http://www.w3.org/2000/svg" xmlns:xlink="http://www.w3.org/1999/xlink" x="0px" y="0px"
	 viewBox="0 0 198.6 45.6" style="enable-background:new 0 0 198.6 45.6;" xml:space="preserve">
<style type="text/css">
	.st0{clip-path:url(#SVGID_00000142162058507599574870000010100786491255379865_);}
	.st1{fill:#FFFFFF;}
	.st2{clip-path:url(#SVGID_00000144333511319855635850000006776366568387447957_);}
	.st3{fill:#DD0400;}
	.st4{fill:url(#SVGID_00000019679103056952938980000009351908932227624843_);}
	.st5{fill:#6B1C1C;}
</style>
<g>
	<defs>
		<rect id="SVGID_1_" x="3.6" y="5" width="40" height="40"/>
	</defs>
	<clipPath id="SVGID_00000042701135367358856150000013718153552989770886_">
		<use xlink:href="#SVGID_1_"  style="overflow:visible;"/>
	</clipPath>
	<g style="clip-path:url(#SVGID_00000042701135367358856150000013718153552989770886_);">
		<path class="st1" d="M20.1,22.1l1.3,3.7h-2.9l1.3-3.7H20.1z M27,27.8h-2.1v0.7H30v-0.7H28v-5.9H30v-0.7h-5.2v0.7H27V27.8z
			 M17.5,28.5l0.7-2h3.4l0.7,2h1.1l-2.7-7.4h-1.5l-2.7,7.4H17.5z M34.1,35.6H13V14.4h21.2V35.6z"/>
		<path class="st1" d="M25.6,45c9.4-1,17-8.5,17.9-17.9h-2.5c-0.9,8.2-7.1,14.7-15.4,15.7V45z"/>
		<path class="st1" d="M3.6,27c1,9.4,8.5,17,17.9,17.9v-2.3C13.1,41.8,7,35.2,6.1,27H3.6z"/>
		<path class="st1" d="M43.6,22.9c-1-9.4-8.5-17-17.9-17.9v2.3c8.4,0.9,14.5,7.5,15.4,15.7H43.6z"/>
		<path class="st1" d="M21.5,5c-9.4,1-17,8.5-17.9,17.9h2.5c0.9-8.2,7.1-14.7,15.4-15.7V5z"/>
	</g>
</g>
<g>
	<defs>
		<rect id="SVGID_00000101069699722148735850000005205411375617485187_" x="58.6" y="17.3" width="140" height="15.3"/>
	</defs>
	<clipPath id="SVGID_00000021097979844536874330000006055905605972281492_">
		<use xlink:href="#SVGID_00000101069699722148735850000005205411375617485187_"  style="overflow:visible;"/>
	</clipPath>
	<g style="clip-path:url(#SVGID_00000021097979844536874330000006055905605972281492_);">
		<path class="st1" d="M161.5,19.3h0.5l2.6,7.6h-5.8L161.5,19.3z M98.3,19.3h0.5l2.6,7.6h-5.8L98.3,19.3z M78.6,19.1H83
			c1.7,0,2.7,0.8,2.7,2.8c0,2.1-1.1,2.7-2.7,2.7h-0.4l-4.1-5.3V19.1z M69.3,26.2c0,3-1.3,4.9-4.2,4.9c-2.9,0-4.2-2-4.2-4.9v-2.4
			c0-3.1,1.3-4.9,4.2-4.9c2.9,0,4.2,1.9,4.2,4.9V26.2z M196.7,30.1h-0.2l-6.8-12.6h-2.9v14.9h1.9V19.8h0.2l6.7,12.7h2.9V17.5h-1.9
			V30.1z M175.8,19v12h-4.2v1.5h10.5V31h-4.2V19h4.2v-1.5h-10.5V19H175.8z M154.8,32.4h2l1.4-4h6.9l1.3,4h2.2l-5.4-14.9h-3
			L154.8,32.4z M141,24.1v-6.6h-2v14.9h2v-6.8h7.6v6.8h2V17.5h-2v6.6H141z M112.7,19v12h-4.2v1.5h10.5V31h-4.2V19h4.2v-1.5h-10.5V19
			H112.7z M91.6,32.4h2l1.4-4h6.9l1.3,4h2.2l-5.4-14.9h-3L91.6,32.4z M88,21.8c0-2.9-1.9-4.3-4.9-4.3h-7V19l4.3,5.6h-4.3v7.9h2v-6.3
			h3.4l4.8,6.3h2.3L83.8,26C86.4,25.7,88,24.5,88,21.8z M129.1,18.9c1.7,0,2.7,0.6,3.5,2.4l1.8-0.7c-1.2-2.3-2.7-3.2-5.3-3.2
			c-4.7,0-6.5,3-6.5,7.6c0,4.6,1.8,7.7,6.3,7.7c2.7,0,4.2-1.1,5.4-3.3l-1.7-0.7c-0.7,1.7-1.7,2.4-3.6,2.4c-3,0-4.1-2-4.1-4.9v-2.4
			C124.9,20.9,125.9,18.9,129.1,18.9L129.1,18.9z M65.2,17.3c-4.2,0-6.6,2.8-6.6,7.7c0,4.8,2.3,7.6,6.5,7.6c4.2,0,6.5-2.8,6.5-7.7
			C71.5,20.1,69.3,17.3,65.2,17.3L65.2,17.3z"/>
	</g>
</g>
<g id="Layer_2_00000088828595449416535710000009251143470797323425_">
	<g>
		<g>
			<g>
				<g>
					<path id="SVGID_00000178170957623547431370000015344474303283928466_" class="st3" d="M5.4,2.6c-2,1.3-2.3,2.6-2.4,4
						c-0.1,1.4,0.4,4,1,4.2c0.4,0.1,0.8-1.2,1.2-2c1-2.1,0.9-4,0.9-4S6.1,3,5.4,2.6z"/>
				</g>
			</g>
		</g>
		
			<radialGradient id="SVGID_00000023243186925045053310000013672107415011003319_" cx="-144.6024" cy="867.0816" r="4.1358" fx="-145.101" fy="866.1879" gradientTransform="matrix(-8.389043e-02 0.9965 -0.9965 -8.389043e-02 854.2849 227.3855)" gradientUnits="userSpaceOnUse">
			<stop  offset="0.2185" style="stop-color:#FFFFFF"/>
			<stop  offset="0.7644" style="stop-color:#EBD2AD"/>
		</radialGradient>
		<circle style="fill:url(#SVGID_00000023243186925045053310000013672107415011003319_);" cx="3.4" cy="11.1" r="2.8"/>
		<path class="st5" d="M5.4,2.6c0,0-1.7,1.2-1.2,3.7c0.5,2.2,1,2.4,1,2.4l1-1.7l0.1-4.2L5.4,2.6z"/>
		<g>
			<g>
				<g>
					<path id="SVGID_00000148644018694683403030000010028741609457453971_" class="st3" d="M6.6,12.5c-0.7-1.2-2.6-6.9-1.8-9.2
						c0.5-1.6,8.4-2.9,10.1-2.6c2.3,0.4,4.2,1.6,6.1,4.5c0,0-1.8-1.2-8,1.7C6.7,9.9,6.6,12.5,6.6,12.5z"/>
				</g>
			</g>
		</g>
	</g>
	<g>
		<g>
			<g>
				<path id="SVGID_00000161623728867996351270000018351000874065806234_" class="st1" d="M6.7,12.6c0.2,0.5,0.7,0.8,0.8,0.6
					c0.7-1.3,2.6-4,5.9-5.5c3.3-1.6,6.6-1.4,8-1c0.2,0,0.2-0.5,0-1C21,5,20.4,4.5,19.1,4.1c-1.7-0.6-4.2-0.5-7.1,0.7
					c-2.9,1.5-4.5,3.3-5.1,5C6.3,11.2,6.3,11.9,6.7,12.6z"/>
			</g>
		</g>
	</g>
</g>
<polygon class="st1" points="8.8,9.8 7.9,12.2 8.8,12.4 10.8,10.9 17.8,7.7 20.2,6.7 18.9,5.2 9.6,8.5 "/>
</svg>
