<svg width="24" height="18" viewBox="0 0 24 18" fill="none" xmlns="http://www.w3.org/2000/svg">
<path d="M23.3283 5.83833L18.6617 1.17166C18.5529 1.06288 18.4237 0.976594 18.2816 0.917723C18.1395 0.858853 17.9872 0.828552 17.8333 0.828552C17.5226 0.828552 17.2247 0.951972 17.005 1.17166C16.7853 1.39135 16.6619 1.68931 16.6619 1.99999C16.6619 2.31068 16.7853 2.60864 17.005 2.82833L19.6883 5.49999H6.16667C5.85725 5.49999 5.5605 5.62291 5.34171 5.8417C5.12292 6.06049 5 6.35724 5 6.66666C5 6.97608 5.12292 7.27282 5.34171 7.49162C5.5605 7.71041 5.85725 7.83333 6.16667 7.83333H22.5C22.7303 7.83218 22.9552 7.76287 23.1462 7.63415C23.3372 7.50543 23.4858 7.32305 23.5733 7.10999C23.6627 6.89753 23.6871 6.66336 23.6435 6.43704C23.5999 6.21072 23.4902 6.00239 23.3283 5.83833ZM17.8333 10.1667H1.5C1.26967 10.1678 1.04483 10.2371 0.853828 10.3658C0.662821 10.4946 0.51419 10.6769 0.426667 10.89C0.337324 11.1025 0.312914 11.3366 0.356517 11.5629C0.40012 11.7893 0.509783 11.9976 0.671667 12.1617L5.33833 16.8283C5.44679 16.9377 5.57583 17.0245 5.71799 17.0837C5.86016 17.1429 6.01265 17.1734 6.16667 17.1734C6.32068 17.1734 6.47317 17.1429 6.61534 17.0837C6.75751 17.0245 6.88654 16.9377 6.995 16.8283C7.10435 16.7199 7.19114 16.5908 7.25037 16.4487C7.3096 16.3065 7.3401 16.154 7.3401 16C7.3401 15.846 7.3096 15.6935 7.25037 15.5513C7.19114 15.4092 7.10435 15.2801 6.995 15.1717L4.31167 12.5H17.8333C18.1428 12.5 18.4395 12.3771 18.6583 12.1583C18.8771 11.9395 19 11.6427 19 11.3333C19 11.0239 18.8771 10.7272 18.6583 10.5084C18.4395 10.2896 18.1428 10.1667 17.8333 10.1667Z" fill="#1B57F0"/>
</svg>
