<svg width="17" height="16" viewBox="0 0 17 16" fill="none" xmlns="http://www.w3.org/2000/svg">
<path d="M16.3729 15.4659L15.6446 10.2965C15.489 9.19197 14.6479 8.31203 13.5515 8.10687L10.6149 7.55734C11.2636 6.95553 11.6704 6.09625 11.6704 5.14365V3.30378C11.8754 3.05272 12.0008 2.71837 12.0008 2.35168C12.0008 1.05503 11.0843 0.00012207 9.95783 0.00012207H6.80374C5.67724 0.00012207 4.76077 1.05503 4.76077 2.35168C4.76077 2.71437 4.88339 3.04543 5.08446 3.29553V5.14365C5.08446 6.09625 5.49121 6.95553 6.13996 7.55734L3.20336 8.10684C2.10702 8.312 1.26586 9.19197 1.11024 10.2964L0.382019 15.4659C0.363112 15.6003 0.403331 15.7363 0.492362 15.8388C0.581394 15.9412 0.710456 16.0001 0.846175 16.0001H15.9087C16.0444 16.0001 16.1735 15.9412 16.2625 15.8388C16.3515 15.7363 16.3918 15.6003 16.3729 15.4659ZM8.3808 11.2969C8.11268 11.2969 7.8668 11.277 7.64046 11.241L8.3808 9.28384L9.12189 11.243C8.88961 11.2788 8.64258 11.2969 8.3808 11.2969ZM6.73924 10.9737C5.54727 10.4208 5.21171 9.29594 5.11746 8.70244L6.53805 8.43659H7.69892L6.73924 10.9737ZM5.91092 11.5971C6.41374 11.9149 7.06661 12.1519 7.91205 12.2163V15.0626H5.46752L5.91092 11.5971ZM8.84955 12.2163C9.69589 12.1518 10.3493 11.9144 10.8524 11.596L11.3035 15.0626H8.84955V12.2163ZM11.2662 9.81784C10.9768 10.3465 10.5615 10.7345 10.0248 10.9802L9.06258 8.43659H10.2167L11.6409 8.70309C11.5936 8.99231 11.4906 9.40797 11.2662 9.81784ZM6.80374 0.93756H9.95783C10.5674 0.93756 11.0633 1.5719 11.0633 2.35162C11.0633 2.63015 10.8955 2.82428 10.7449 2.82428C9.43824 2.82428 8.78767 2.10218 8.74396 2.05184C8.65505 1.94115 8.52568 1.88287 8.38355 1.88287H8.37796C8.23586 1.88287 8.10646 1.94115 8.01755 2.05184C7.97386 2.10215 7.3233 2.82428 6.01658 2.82428C5.86602 2.82428 5.69821 2.63015 5.69821 2.35162C5.69827 1.5719 6.19417 0.93756 6.80374 0.93756ZM6.02196 5.14362V3.76172C7.1778 3.76031 7.9623 3.31156 8.38077 2.98431C8.79842 3.31094 9.58074 3.7585 10.7329 3.76162V5.14359C10.7329 6.4424 9.67624 7.49906 8.37742 7.49906C7.07861 7.49906 6.02196 6.4424 6.02196 5.14362ZM2.03858 10.4272C2.13799 9.72159 2.67536 9.15944 3.37583 9.02834L4.19846 8.8744C4.26064 9.24465 4.39258 9.75575 4.67302 10.268C4.77633 10.4568 4.90443 10.6531 5.06192 10.8455L4.52236 15.0626H1.38558L2.03858 10.4272ZM12.249 15.0626L11.7 10.8451C11.8574 10.6528 11.9853 10.4566 12.0886 10.2681C12.3687 9.75637 12.5007 9.24581 12.5629 8.87565L13.3791 9.02837C14.0795 9.15944 14.6169 9.72162 14.7163 10.4273L15.3693 15.0626H12.249Z" fill="white"/>
</svg>
