<?xml version="1.0" encoding="utf-8"?>
<!-- Generator: Adobe Illustrator 26.0.0, SVG Export Plug-In . SVG Version: 6.00 Build 0)  -->
<svg version="1.1" id="Layer_1" xmlns="http://www.w3.org/2000/svg" xmlns:xlink="http://www.w3.org/1999/xlink" x="0px" y="0px"
	 viewBox="0 0 49.9 45.6" style="enable-background:new 0 0 49.9 45.6;" xml:space="preserve">
<style type="text/css">
	.st0{clip-path:url(#SVGID_00000018920987643058666230000007908386505211450030_);}
	.st1{fill:#FFFFFF;}
	.st2{fill:#DD0400;}
	.st3{fill:url(#SVGID_00000143617278703041121480000015468921143544827785_);}
	.st4{fill:#6B1C1C;}
</style>
<g>
	<g>
		<defs>
			<rect id="SVGID_1_" x="4.4" y="5.3" width="40" height="40"/>
		</defs>
		<clipPath id="SVGID_00000139268255008437830540000012542745489375140238_">
			<use xlink:href="#SVGID_1_"  style="overflow:visible;"/>
		</clipPath>
		<g style="clip-path:url(#SVGID_00000139268255008437830540000012542745489375140238_);">
			<path class="st1" d="M20.9,22.4l1.3,3.7h-2.9l1.3-3.7H20.9z M27.8,28.1h-2.1v0.7h5.1v-0.7h-2v-5.9h2v-0.7h-5.2v0.7h2.2V28.1z
				 M18.3,28.8l0.7-2h3.4l0.7,2h1.1l-2.7-7.4H20l-2.7,7.4H18.3z M34.9,35.9H13.8V14.7H35v21.2H34.9z"/>
			<path class="st1" d="M26.4,45.3c9.4-1,17-8.5,17.9-17.9h-2.5c-0.9,8.2-7.1,14.7-15.4,15.7V45.3z"/>
			<path class="st1" d="M4.4,27.3c1,9.4,8.5,17,17.9,17.9v-2.3c-8.4-0.8-14.5-7.4-15.4-15.6H4.4z"/>
			<path class="st1" d="M44.4,23.2c-1-9.4-8.5-17-17.9-17.9v2.3c8.4,0.9,14.5,7.5,15.4,15.7h2.5V23.2z"/>
			<path class="st1" d="M22.3,5.3c-9.4,1-17,8.5-17.9,17.9h2.5C7.8,15,14,8.5,22.3,7.5V5.3z"/>
		</g>
	</g>
</g>
<g id="Layer_2_00000088828595449416535710000009251143470797323425_">
	<g>
		<g>
			<g>
				<g>
					<path id="SVGID_00000178170957623547431370000015344474303283928466_" class="st2" d="M6.5,2.6c-2,1.3-2.3,2.6-2.4,4
						c-0.1,1.4,0.4,4,1,4.2c0.4,0.1,0.8-1.2,1.2-2c1-2.1,0.9-4,0.9-4S7.2,3,6.5,2.6z"/>
				</g>
			</g>
		</g>
		
			<radialGradient id="SVGID_00000007417034431326292300000004967192715717862533_" cx="-103.8915" cy="96.4783" r="4.1358" fx="-104.3901" fy="95.5846" gradientTransform="matrix(-8.389043e-02 0.9965 0.9965 8.389043e-02 -101.4373 106.0269)" gradientUnits="userSpaceOnUse">
			<stop  offset="0.2185" style="stop-color:#FFFFFF"/>
			<stop  offset="0.7644" style="stop-color:#EBD2AD"/>
		</radialGradient>
		<circle style="fill:url(#SVGID_00000007417034431326292300000004967192715717862533_);" cx="4.5" cy="11.1" r="2.8"/>
		<path class="st4" d="M6.5,2.6c0,0-1.7,1.2-1.2,3.7c0.5,2.2,1,2.4,1,2.4l1-1.7l0.1-4.2L6.5,2.6z"/>
		<g>
			<g>
				<g>
					<path id="SVGID_00000148644018694683403030000010028741609457453971_" class="st2" d="M7.7,12.5C7,11.3,5.1,5.6,5.9,3.3
						C6.4,1.7,14.3,0.4,16,0.7c2.3,0.4,4.2,1.6,6.1,4.5c0,0-1.8-1.2-8,1.7C7.8,9.9,7.7,12.5,7.7,12.5z"/>
				</g>
			</g>
		</g>
	</g>
	<g>
		<g>
			<g>
				<path id="SVGID_00000161623728867996351270000018351000874065806234_" class="st1" d="M7.8,12.6c0.2,0.5,0.7,0.8,0.8,0.6
					c0.7-1.3,2.6-4,5.9-5.5c3.3-1.6,6.1-1.4,7.5-1c0.2,0,0.1-0.8,0.4-1.1c-0.4-0.7-0.9-1.1-2.2-1.5c-1.7-0.6-4.2-0.5-7.1,0.7
					c-2.9,1.5-4.5,3.3-5.1,5C7.4,11.2,7.4,11.9,7.8,12.6z"/>
			</g>
		</g>
	</g>
</g>
<polygon class="st1" points="9.9,9.8 9,12.2 9.9,12.4 11.9,10.9 18.9,7.7 21.3,6.7 20,5.2 10.7,8.5 "/>
</svg>
