<svg width="16" height="18" viewBox="0 0 16 18" fill="none" xmlns="http://www.w3.org/2000/svg">
<path d="M15.5 6.45008C15.4913 6.37353 15.4746 6.29811 15.45 6.22508V6.15008C15.4099 6.0644 15.3565 5.98564 15.2917 5.91675L10.2917 0.916748C10.2228 0.851928 10.144 0.798482 10.0583 0.758415C10.0335 0.754881 10.0082 0.754881 9.98333 0.758415C9.89868 0.709866 9.80519 0.678702 9.70833 0.666748H6.33333C5.67029 0.666748 5.03441 0.93014 4.56557 1.39898C4.09673 1.86782 3.83333 2.50371 3.83333 3.16675V4.00008H3C2.33696 4.00008 1.70107 4.26347 1.23223 4.73231C0.763392 5.20116 0.5 5.83704 0.5 6.50008V14.8334C0.5 15.4965 0.763392 16.1323 1.23223 16.6012C1.70107 17.07 2.33696 17.3334 3 17.3334H9.66667C10.3297 17.3334 10.9656 17.07 11.4344 16.6012C11.9033 16.1323 12.1667 15.4965 12.1667 14.8334V14.0001H13C13.663 14.0001 14.2989 13.7367 14.7678 13.2678C15.2366 12.799 15.5 12.1631 15.5 11.5001V6.50008C15.5 6.50008 15.5 6.50008 15.5 6.45008ZM10.5 3.50841L12.6583 5.66675H11.3333C11.1123 5.66675 10.9004 5.57895 10.7441 5.42267C10.5878 5.26639 10.5 5.05443 10.5 4.83342V3.50841ZM10.5 14.8334C10.5 15.0544 10.4122 15.2664 10.2559 15.4227C10.0996 15.579 9.88768 15.6667 9.66667 15.6667H3C2.77899 15.6667 2.56702 15.579 2.41074 15.4227C2.25446 15.2664 2.16667 15.0544 2.16667 14.8334V6.50008C2.16667 6.27907 2.25446 6.06711 2.41074 5.91083C2.56702 5.75455 2.77899 5.66675 3 5.66675H3.83333V11.5001C3.83333 12.1631 4.09673 12.799 4.56557 13.2678C5.03441 13.7367 5.67029 14.0001 6.33333 14.0001H10.5V14.8334ZM13.8333 11.5001C13.8333 11.7211 13.7455 11.9331 13.5893 12.0893C13.433 12.2456 13.221 12.3334 13 12.3334H6.33333C6.11232 12.3334 5.90036 12.2456 5.74408 12.0893C5.5878 11.9331 5.5 11.7211 5.5 11.5001V3.16675C5.5 2.94573 5.5878 2.73377 5.74408 2.57749C5.90036 2.42121 6.11232 2.33341 6.33333 2.33341H8.83333V4.83342C8.83333 5.49646 9.09672 6.13234 9.56557 6.60118C10.0344 7.07002 10.6703 7.33342 11.3333 7.33342H13.8333V11.5001Z" fill="#1B57F0"/>
</svg>
