<svg width="36" height="36" viewBox="0 0 36 36" fill="none" xmlns="http://www.w3.org/2000/svg">
<path d="M36 18C36 27.9413 27.9413 36 18 36C8.05875 36 0 27.9413 0 18C0 8.05875 8.05875 0 18 0C27.9413 0 36 8.05875 36 18Z" fill="#1B57F0"/>
<path d="M16.4572 10.4402H18V11.983H16.4572V10.4402Z" fill="white"/>
<path d="M16.4572 19.5044H18V21.703H16.4572V19.5044Z" fill="white"/>
<path d="M19.5428 27.874H21.0857V26.3314H19.5428V24.7886H18V27.874H19.5428Z" fill="white"/>
<path d="M19.5428 16.4187H24.1714V17.9615H19.5428V16.4187Z" fill="white"/>
<path d="M24.1714 17.9614H26.3312V19.5043H24.1714V17.9614Z" fill="white"/>
<path d="M24.1714 21.703V23.2458H27.874V19.5044H26.3314V21.703H24.1714Z" fill="white"/>
<path d="M18 8.12598H19.5428V10.4402H18V8.12598Z" fill="white"/>
<path d="M18 15.0686H19.5428V11.9832H18V13.526H16.4572V17.9615H18V15.0686Z" fill="white"/>
<path d="M10.4402 16.4187H8.12598V19.5044H9.66882V17.9615H11.9831V16.4187H10.4402Z" fill="white"/>
<path d="M18 17.9614H19.5428V19.5043H18V17.9614Z" fill="white"/>
<path d="M22.6285 19.5044H24.1714V21.0472H22.6285V19.5044Z" fill="white"/>
<path d="M26.3314 16.4187H27.874V17.9615H26.3314V16.4187Z" fill="white"/>
<path d="M21.0857 19.5044H19.5428V21.703H18V23.2458H21.0857V19.5044Z" fill="white"/>
<path d="M16.4572 23.2458H18V24.7887H16.4572V23.2458Z" fill="white"/>
<path d="M21.0857 23.2458V24.7887H24.1714V23.2458H21.0857Z" fill="white"/>
<path d="M24.1714 24.7886H25.7142V26.3314H24.1714V24.7886Z" fill="white"/>
<path d="M25.7142 26.3313H27.874V27.8741H25.7142V26.3313Z" fill="white"/>
<path d="M22.6285 26.3313H24.1714V27.8741H22.6285V26.3313Z" fill="white"/>
<path d="M15.0686 17.9615V16.4187H13.5257V17.9615H11.9831V19.5044H16.4572V17.9615H15.0686Z" fill="white"/>
<path d="M15.1945 8H8V15.1945H15.1947V8H15.1945ZM13.3997 13.3997H9.79454V9.79477H13.3997V13.3997Z" fill="white"/>
<path d="M10.8258 10.8259H12.3687V12.3688H10.8258V10.8259Z" fill="white"/>
<path d="M20.8055 8V15.1945H28.0002V8H20.8055ZM26.2052 13.3997H22.6003V9.79477H26.2052V13.3997Z" fill="white"/>
<path d="M23.6313 10.8259H25.1742V12.3688H23.6313V10.8259Z" fill="white"/>
<path d="M8 27.9999H15.1947V20.8054H8V27.9999ZM9.79477 22.6002H13.4V26.2052H9.79477V22.6002Z" fill="white"/>
<path d="M10.8258 23.6313H12.3687V25.1742H10.8258V23.6313Z" fill="white"/>
</svg>
