<svg width="20" height="20" viewBox="0 0 20 20" fill="none" xmlns="http://www.w3.org/2000/svg">
<path d="M9.40833 12.7417C9.37249 12.7813 9.33909 12.8231 9.30833 12.8667C9.27679 12.9132 9.25157 12.9636 9.23333 13.0167C9.2093 13.064 9.19245 13.1145 9.18333 13.1667C9.17924 13.2222 9.17924 13.2779 9.18333 13.3334C9.18051 13.4427 9.20334 13.5512 9.24999 13.6501C9.28742 13.7535 9.34713 13.8474 9.4249 13.9252C9.50266 14.0029 9.59658 14.0627 9.69999 14.1001C9.79974 14.1442 9.9076 14.1669 10.0167 14.1669C10.1257 14.1669 10.2336 14.1442 10.3333 14.1001C10.4367 14.0627 10.5307 14.0029 10.6084 13.9252C10.6862 13.8474 10.7459 13.7535 10.7833 13.6501C10.8203 13.5488 10.8373 13.4412 10.8333 13.3334C10.834 13.2237 10.8129 13.115 10.7715 13.0135C10.73 12.912 10.6689 12.8196 10.5917 12.7417C10.5142 12.6636 10.422 12.6016 10.3205 12.5593C10.2189 12.517 10.11 12.4952 9.99999 12.4952C9.88998 12.4952 9.78106 12.517 9.67951 12.5593C9.57796 12.6016 9.4858 12.6636 9.40833 12.7417ZM9.99999 1.66675C8.35182 1.66675 6.74065 2.15549 5.37024 3.07117C3.99983 3.98685 2.93173 5.28834 2.301 6.81105C1.67027 8.33377 1.50524 10.0093 1.82678 11.6258C2.14833 13.2423 2.942 14.7272 4.10744 15.8926C5.27287 17.0581 6.75773 17.8517 8.37424 18.1733C9.99075 18.4948 11.6663 18.3298 13.189 17.6991C14.7117 17.0683 16.0132 16.0002 16.9289 14.6298C17.8446 13.2594 18.3333 11.6483 18.3333 10.0001C18.3333 8.90573 18.1178 7.8221 17.699 6.81105C17.2802 5.80001 16.6664 4.88135 15.8925 4.10752C15.1187 3.3337 14.2001 2.71987 13.189 2.30109C12.178 1.8823 11.0943 1.66675 9.99999 1.66675ZM9.99999 16.6667C8.68145 16.6667 7.39252 16.2758 6.29619 15.5432C5.19986 14.8107 4.34538 13.7695 3.8408 12.5513C3.33621 11.3331 3.20419 9.99269 3.46143 8.69948C3.71866 7.40627 4.3536 6.21839 5.28595 5.28604C6.2183 4.35369 7.40619 3.71875 8.69939 3.46151C9.9926 3.20428 11.333 3.3363 12.5512 3.84088C13.7694 4.34547 14.8106 5.19995 15.5431 6.29628C16.2757 7.39261 16.6667 8.68154 16.6667 10.0001C16.6667 11.7682 15.9643 13.4639 14.714 14.7141C13.4638 15.9644 11.7681 16.6667 9.99999 16.6667ZM9.99999 5.83342C9.56088 5.83313 9.12944 5.94852 8.74908 6.16795C8.36873 6.38739 8.05288 6.70313 7.83333 7.08342C7.77303 7.17826 7.73255 7.28433 7.71431 7.39523C7.69606 7.50613 7.70044 7.61957 7.72718 7.72874C7.75392 7.8379 7.80247 7.94053 7.8699 8.03044C7.93733 8.12036 8.02225 8.19571 8.11955 8.25195C8.21686 8.3082 8.32453 8.34418 8.4361 8.35773C8.54768 8.37128 8.66083 8.36213 8.76877 8.33081C8.87671 8.2995 8.9772 8.24667 9.0642 8.17551C9.1512 8.10436 9.2229 8.01634 9.27499 7.91675C9.34841 7.78958 9.45413 7.68407 9.58145 7.6109C9.70876 7.53773 9.85315 7.4995 9.99999 7.50008C10.221 7.50008 10.433 7.58788 10.5892 7.74416C10.7455 7.90044 10.8333 8.1124 10.8333 8.33342C10.8333 8.55443 10.7455 8.76639 10.5892 8.92267C10.433 9.07895 10.221 9.16675 9.99999 9.16675C9.77898 9.16675 9.56702 9.25455 9.41074 9.41083C9.25446 9.56711 9.16666 9.77907 9.16666 10.0001V10.8334C9.16666 11.0544 9.25446 11.2664 9.41074 11.4227C9.56702 11.579 9.77898 11.6667 9.99999 11.6667C10.221 11.6667 10.433 11.579 10.5892 11.4227C10.7455 11.2664 10.8333 11.0544 10.8333 10.8334V10.6834C11.3845 10.4834 11.8478 10.0961 12.1423 9.58914C12.4368 9.08217 12.5438 8.48782 12.4445 7.90999C12.3452 7.33216 12.046 6.8076 11.5992 6.42801C11.1523 6.04843 10.5863 5.83796 9.99999 5.83342Z" fill="#9A9A9A"/>
</svg>
