<svg width="16" height="16" viewBox="0 0 16 16" fill="none" xmlns="http://www.w3.org/2000/svg">
<path d="M8.00273 3.61053L5.14273 6.4772C5.01719 6.60274 4.84693 6.67326 4.66939 6.67326C4.49186 6.67326 4.3216 6.60274 4.19606 6.4772C4.07053 6.35166 4 6.1814 4 6.00387C4 5.82633 4.07053 5.65607 4.19606 5.53053L7.52939 2.1972C7.59137 2.13471 7.6651 2.08512 7.74634 2.05127C7.82758 2.01743 7.91472 2 8.00273 2C8.09073 2 8.17787 2.01743 8.25911 2.05127C8.34035 2.08512 8.41408 2.13471 8.47606 2.1972L11.8094 5.53053C11.8719 5.59251 11.9215 5.66624 11.9553 5.74748C11.9892 5.82872 12.0066 5.91586 12.0066 6.00387C12.0066 6.09187 11.9892 6.17901 11.9553 6.26025C11.9215 6.34149 11.8719 6.41522 11.8094 6.4772C11.7474 6.53968 11.6737 6.58928 11.5924 6.62313C11.5112 6.65697 11.4241 6.6744 11.3361 6.6744C11.2481 6.6744 11.1609 6.65697 11.0797 6.62313C10.9984 6.58928 10.9247 6.53968 10.8627 6.4772L8.00273 3.61053Z" fill="#546A8A"/>
<path d="M8.00386 12.3895L10.8639 9.5228C10.9894 9.39726 11.1597 9.32674 11.3372 9.32674C11.5147 9.32674 11.685 9.39726 11.8105 9.5228C11.9361 9.64834 12.0066 9.8186 12.0066 9.99613C12.0066 10.1737 11.9361 10.3439 11.8105 10.4695L8.4772 13.8028C8.41522 13.8653 8.34149 13.9149 8.26025 13.9487C8.17901 13.9826 8.09187 14 8.00386 14C7.91586 14 7.82872 13.9826 7.74748 13.9487C7.66624 13.9149 7.59251 13.8653 7.53053 13.8028L4.1972 10.4695C4.13471 10.4075 4.08512 10.3338 4.05127 10.2525C4.01742 10.1713 4 10.0841 4 9.99613C4 9.90813 4.01742 9.82099 4.05127 9.73975C4.08512 9.65851 4.13471 9.58478 4.1972 9.5228C4.25917 9.46032 4.33291 9.41072 4.41415 9.37687C4.49539 9.34303 4.58252 9.3256 4.67053 9.3256C4.75854 9.3256 4.84568 9.34303 4.92692 9.37687C5.00816 9.41072 5.08189 9.46032 5.14386 9.5228L8.00386 12.3895Z" fill="#1B57F0"/>
</svg>
