<svg width="10" height="14" viewBox="0 0 10 14" fill="none" xmlns="http://www.w3.org/2000/svg">
<path d="M7.86004 8.52669L5.00004 11.3934L2.14004 8.52669C2.01451 8.40115 1.84424 8.33063 1.66671 8.33063C1.48917 8.33063 1.31891 8.40115 1.19338 8.52669C1.06784 8.65222 0.997314 8.82249 0.997314 9.00002C0.997314 9.17756 1.06784 9.34782 1.19338 9.47335L4.52671 12.8067C4.58868 12.8692 4.66242 12.9188 4.74366 12.9526C4.8249 12.9865 4.91203 13.0039 5.00004 13.0039C5.08805 13.0039 5.17519 12.9865 5.25643 12.9526C5.33767 12.9188 5.4114 12.8692 5.47337 12.8067L8.80671 9.47335C8.86887 9.41119 8.91817 9.3374 8.95181 9.25619C8.98545 9.17497 9.00277 9.08793 9.00277 9.00002C9.00277 8.91211 8.98545 8.82507 8.95181 8.74385C8.91817 8.66264 8.86887 8.58885 8.80671 8.52669C8.74455 8.46453 8.67075 8.41522 8.58954 8.38158C8.50833 8.34794 8.42128 8.33063 8.33337 8.33063C8.24547 8.33063 8.15842 8.34794 8.07721 8.38158C7.99599 8.41522 7.9222 8.46453 7.86004 8.52669ZM2.14004 5.47335L5.00004 2.60669L7.86004 5.47335C7.92202 5.53584 7.99575 5.58544 8.07699 5.61928C8.15823 5.65313 8.24537 5.67055 8.33337 5.67055C8.42138 5.67055 8.50852 5.65313 8.58976 5.61928C8.671 5.58544 8.74473 5.53584 8.80671 5.47335C8.86919 5.41138 8.91879 5.33764 8.95264 5.2564C8.98648 5.17517 9.00391 5.08803 9.00391 5.00002C9.00391 4.91201 8.98648 4.82488 8.95264 4.74364C8.91879 4.6624 8.86919 4.58866 8.80671 4.52669L5.47337 1.19335C5.4114 1.13087 5.33767 1.08127 5.25643 1.04743C5.17519 1.01358 5.08805 0.996155 5.00004 0.996155C4.91203 0.996155 4.8249 1.01358 4.74366 1.04743C4.66242 1.08127 4.58868 1.13087 4.52671 1.19335L1.19338 4.52669C1.06784 4.65222 0.997314 4.82249 0.997314 5.00002C0.997314 5.17756 1.06784 5.34782 1.19338 5.47335C1.31891 5.59889 1.48917 5.66941 1.66671 5.66941C1.84424 5.66941 2.01451 5.59889 2.14004 5.47335Z" fill="#546A8A"/>
</svg>
