<svg width="16" height="16" viewBox="0 0 16 16" fill="none" xmlns="http://www.w3.org/2000/svg">
<g clipPath="url(#clip0)">
<path d="M10.86 9.52669L8.00001 12.3934L5.14001 9.52669C5.01448 9.40115 4.84421 9.33063 4.66668 9.33063C4.48914 9.33063 4.31888 9.40115 4.19335 9.52669C4.06781 9.65222 3.99728 9.82249 3.99728 10C3.99728 10.1776 4.06781 10.3478 4.19335 10.4734L7.52668 13.8067C7.58865 13.8692 7.66239 13.9188 7.74363 13.9526C7.82487 13.9865 7.912 14.0039 8.00001 14.0039C8.08802 14.0039 8.17516 13.9865 8.2564 13.9526C8.33764 13.9188 8.41137 13.8692 8.47334 13.8067L11.8067 10.4734C11.8688 10.4112 11.9181 10.3374 11.9518 10.2562C11.9854 10.175 12.0027 10.0879 12.0027 10C12.0027 9.91211 11.9854 9.82507 11.9518 9.74385C11.9181 9.66264 11.8688 9.58885 11.8067 9.52669C11.7445 9.46453 11.6707 9.41522 11.5895 9.38158C11.5083 9.34794 11.4212 9.33063 11.3333 9.33063C11.2454 9.33063 11.1584 9.34794 11.0772 9.38158C10.996 9.41522 10.9222 9.46453 10.86 9.52669ZM5.14001 6.47335L8.00001 3.60669L10.86 6.47335C10.922 6.53584 10.9957 6.58544 11.077 6.61928C11.1582 6.65313 11.2453 6.67055 11.3333 6.67055C11.4214 6.67055 11.5085 6.65313 11.5897 6.61928C11.671 6.58544 11.7447 6.53584 11.8067 6.47335C11.8692 6.41138 11.9188 6.33764 11.9526 6.2564C11.9865 6.17517 12.0039 6.08803 12.0039 6.00002C12.0039 5.91201 11.9865 5.82488 11.9526 5.74364C11.9188 5.6624 11.8692 5.58866 11.8067 5.52669L8.47334 2.19335C8.41137 2.13087 8.33764 2.08127 8.2564 2.04743C8.17516 2.01358 8.08802 1.99615 8.00001 1.99615C7.912 1.99615 7.82487 2.01358 7.74363 2.04743C7.66239 2.08127 7.58865 2.13087 7.52668 2.19335L4.19335 5.52669C4.06781 5.65222 3.99728 5.82249 3.99728 6.00002C3.99728 6.17755 4.06781 6.34782 4.19335 6.47335C4.31888 6.59889 4.48914 6.66941 4.66668 6.66941C4.84421 6.66941 5.01448 6.59889 5.14001 6.47335Z" fill="#546A8A"/>
<path d="M8.00001 12.3934L10.86 9.52669C10.9222 9.46453 10.996 9.41522 11.0772 9.38158C11.1584 9.34794 11.2454 9.33063 11.3333 9.33063C11.4212 9.33063 11.5083 9.34794 11.5895 9.38158C11.6707 9.41522 11.7445 9.46453 11.8067 9.52669C11.8688 9.58885 11.9181 9.66264 11.9518 9.74385C11.9854 9.82507 12.0027 9.91211 12.0027 10C12.0027 10.0879 11.9854 10.175 11.9518 10.2562C11.9181 10.3374 11.8688 10.4112 11.8067 10.4734L8.47334 13.8067C8.41137 13.8692 8.33764 13.9188 8.2564 13.9526C8.17516 13.9865 8.08802 14.0039 8.00001 14.0039C7.912 14.0039 7.82487 13.9865 7.74363 13.9526C7.66239 13.9188 7.58865 13.8692 7.52668 13.8067L4.19335 10.4734C4.06781 10.3478 3.99728 10.1776 3.99728 10C3.99728 9.82249 4.06781 9.65222 4.19335 9.52669C4.31888 9.40115 4.48914 9.33063 4.66668 9.33063C4.84421 9.33063 5.01448 9.40115 5.14001 9.52669L8.00001 12.3934Z" fill="#546A8A"/>
</g>
<defs>
<clipPath id="clip0">
<rect width="16" height="16" fill="white"/>
</clipPath>
</defs>
</svg>
