<svg width="25" height="25" viewBox="0 0 25 25" fill="none" xmlns="http://www.w3.org/2000/svg">
    <rect width="25" height="25" rx="4" fill="#FF9A9A"/>
    <!-- <svg width="13" height="13" viewBox="0 0 13 13" fill="none" xmlns="http://www.w3.org/2000/svg">
        <path d="M7.89207 6.5L11.7886 2.60351C11.9735 2.41891 12.0775 2.16841 12.0777 1.90712C12.078 1.64582 11.9744 1.39514 11.7898 1.21021C11.6052 1.02529 11.3547 0.921267 11.0934 0.921036C10.8321 0.920806 10.5814 1.02438 10.3965 1.20898L6.5 5.10547L2.60351 1.20898C2.41859 1.02406 2.16777 0.920166 1.90625 0.920166C1.64472 0.920166 1.39391 1.02406 1.20898 1.20898C1.02406 1.39391 0.920166 1.64472 0.920166 1.90625C0.920166 2.16777 1.02406 2.41859 1.20898 2.60351L5.10547 6.5L1.20898 10.3965C1.02406 10.5814 0.920166 10.8322 0.920166 11.0937C0.920166 11.3553 1.02406 11.6061 1.20898 11.791C1.39391 11.9759 1.64472 12.0798 1.90625 12.0798C2.16777 12.0798 2.41859 11.9759 2.60351 11.791L6.5 7.89453L10.3965 11.791C10.5814 11.9759 10.8322 12.0798 11.0937 12.0798C11.3553 12.0798 11.6061 11.9759 11.791 11.791C11.9759 11.6061 12.0798 11.3553 12.0798 11.0937C12.0798 10.8322 11.9759 10.5814 11.791 10.3965L7.89207 6.5Z" fill="white"/>
    </svg> -->
</svg>
