<svg width="16" height="16" viewBox="0 0 16 16" fill="none" xmlns="http://www.w3.org/2000/svg">
    <path d="M15.3457 8.73319L11.3684 7.02863C11.2968 6.99809 11.2161 6.99809 11.1445 7.02863L8.98372 7.95471V2.17604C8.98372 2.06226 8.91604 1.95964 8.81156 1.91496L4.83426 0.210405C4.76267 0.179865 4.68192 0.179865 4.6104 0.210405L0.633098 1.91496C0.528623 1.95964 0.460938 2.06226 0.460938 2.17604V11.8352C0.460938 11.949 0.528623 12.0516 0.633098 12.0963L4.6104 13.8008C4.64619 13.8161 4.68419 13.8239 4.72233 13.8239C4.76047 13.8239 4.79847 13.8161 4.83426 13.8008L6.99507 12.8748V13.8239C6.99507 13.9376 7.06276 14.0403 7.16723 14.0849L11.1445 15.7895C11.1803 15.8048 11.2183 15.8125 11.2565 15.8125C11.2946 15.8125 11.3326 15.8048 11.3684 15.7895L15.3457 14.0849C15.4502 14.0403 15.5179 13.9376 15.5179 13.8239V8.99427C15.5179 8.88049 15.4502 8.77786 15.3457 8.73319ZM11.2565 7.59881L14.5127 8.99427L11.2565 10.3897L8.00026 8.99427L11.2565 7.59881ZM1.02912 2.6068L4.43824 4.06782V8.27935L1.02912 6.81833V2.6068ZM5.00642 4.06789L8.41554 2.60687V6.8184L5.00642 8.27942V4.06789ZM4.72233 0.780579L7.97853 2.17604L4.72233 3.57151L1.46613 2.17604L4.72233 0.780579ZM1.02912 7.43638L4.43824 8.8974V13.1089L1.02912 11.6478V7.43638ZM5.00642 13.1089V8.89747L8.41554 7.43645V8.19824L7.16723 8.73326C7.06276 8.77786 6.99507 8.88049 6.99507 8.99427V12.2567L5.00642 13.1089ZM7.56326 9.42503L10.9724 10.886V15.0975L7.56326 13.6365V9.42503ZM11.5406 15.0976V10.8861L14.9497 9.4251V13.6366L11.5406 15.0976Z" fill="#5F51FF"/>
</svg>