<svg width="16" height="16" viewBox="0 0 16 16" fill="none" xmlns="http://www.w3.org/2000/svg">
    <g clipPath="url(#clip0)">
        <path d="M14.4899 2.67668L12.1633 1.44003C12.1599 1.38003 12.1366 1.32337 12.1033 1.27337L11.2999 0.136687C11.2566 0.0833436 11.1999 0.0433437 11.1333 0.0233437C11.1266 0.02 11.1199 0.02 11.1166 0.02C11.0933 0.00999998 11.07 0.00334374 11.0466 0C11.04 0 11.0266 0 11.0266 0L10.9999 0.0333749H4.99993C4.99328 3.12477e-05 4.98659 0.00337499 4.98328 0.00337499C4.97996 0.00337499 4.96993 3.12499e-05 4.96328 3.12499e-05C4.85662 0.00337499 4.75993 0.0533749 4.69993 0.140031L3.89659 1.27337C3.85325 1.33672 3.83325 1.41337 3.83994 1.49003L1.5166 2.67668C1.40325 2.73334 1.33325 2.85003 1.33325 2.97334V15.6667C1.33325 15.85 1.48325 16 1.6666 16H14.3332C14.5166 16 14.6666 15.85 14.6666 15.6667V2.97003C14.6666 2.84668 14.5999 2.73337 14.4899 2.67668ZM11.4399 1.49668L9.62327 4.99333L8.43993 3.40002C9.41327 2.43337 10.4766 1.37003 10.9866 0.853373L11.4399 1.49668ZM8.81658 5.02668L7.99993 6.11336L7.18327 5.02671L7.99993 3.92671L8.81658 5.02668ZM10.2333 0.666686C9.66327 1.24003 8.74658 2.15337 7.99993 2.89668C7.25327 2.15334 6.33659 1.24003 5.76659 0.666686H10.2333ZM4.56659 1.49668L5.01993 0.853342C5.52993 1.37 6.59327 2.43 7.56659 3.39999L6.37993 4.99333L4.56659 1.50003V1.49668ZM1.99994 15.3333V3.19668L4.11659 2.11668L6.02324 5.78668C6.07659 5.89002 6.17659 5.95668 6.29324 5.96668H6.3199C6.42324 5.96668 6.52324 5.91668 6.58656 5.83333L6.7599 5.59668L7.63324 6.75668L5.72659 15.3333H1.99994ZM6.41327 15.3333L7.99993 8.20336L9.58327 15.3333H6.41327ZM13.9999 15.3333H10.2733L8.36661 6.75671L9.23661 5.59671L9.41327 5.83336C9.47661 5.91671 9.57327 5.96671 9.67992 5.96671H9.70658C9.81993 5.95671 9.92324 5.89005 9.97658 5.78671L11.9032 2.07671L13.9999 3.19337V15.3333Z" fill="#5F51FF"/>
    </g>
    <defs>
        <clipPath id="clip0">
            <rect width="16" height="16" fill="white"/>
        </clipPath>
    </defs>
</svg>