<svg width="16" height="16" viewBox="0 0 16 16" fill="none" xmlns="http://www.w3.org/2000/svg">
<g clip-path="url(#clip0)">
<path d="M13.0485 0H8.6676H4.04286C2.93025 0.00204761 2.02735 0.900709 2.02002 2.01332V13.9866C2.02735 15.0992 2.93025 15.9979 4.04286 15.9999H13.0542C13.3017 16.0036 13.5403 15.9083 13.7171 15.7351C13.8858 15.5618 13.9801 15.3294 13.9799 15.0875V0.931423C13.9789 0.417426 13.5625 0.00104761 13.0485 0ZM9.05236 0.7619H11.2904V4.33521L10.4962 3.06855C10.464 3.01493 10.4191 2.97003 10.3655 2.93789C10.1851 2.82965 9.95107 2.88813 9.84283 3.06855L9.05236 4.3295V0.7619ZM2.79144 2.01332C2.79459 1.32347 3.35301 0.765043 4.04286 0.7619H8.29046V4.64759C8.27612 4.95687 8.47031 5.23759 8.76474 5.3333C9.09998 5.43425 9.40093 5.21711 9.57997 4.9314L10.1724 3.97902L10.7647 4.9314C10.9419 5.2133 11.2428 5.43044 11.5876 5.3333C11.8806 5.23797 12.0744 4.9593 12.0619 4.6514V0.771424H13.0542C13.1422 0.772472 13.2132 0.843471 13.2142 0.931423V11.9787C13.1614 11.9698 13.1079 11.9654 13.0542 11.9656H4.04286C3.58844 11.9655 3.14735 12.1193 2.79144 12.4018V2.01332ZM13.2142 13.6094L4.43143 13.619C4.22105 13.619 4.05048 13.7895 4.05048 13.9999C4.05048 14.2103 4.22105 14.3809 4.43143 14.3809L13.2142 14.3713V15.0799C13.2146 15.1225 13.1982 15.1636 13.1685 15.1942C13.138 15.2239 13.0969 15.2403 13.0542 15.2399H4.04286C3.3512 15.2399 2.79049 14.6792 2.79049 13.9875C2.79049 13.2959 3.3512 12.7352 4.04286 12.7352H13.0542C13.1422 12.7362 13.2132 12.8072 13.2142 12.8952V13.6094Z" fill="white"/>
</g>
<defs>
<clipPath id="clip0">
<rect width="16" height="16" fill="white"/>
</clipPath>
</defs>
</svg>
