<svg width="20" height="20" viewBox="0 0 20 20" fill="none" xmlns="http://www.w3.org/2000/svg">
<path d="M17.5 7.45008C17.4913 7.37353 17.4746 7.29811 17.45 7.22508V7.15008C17.4099 7.0644 17.3565 6.98564 17.2917 6.91675L12.2917 1.91675C12.2228 1.85193 12.144 1.79848 12.0583 1.75841C12.0335 1.75488 12.0082 1.75488 11.9833 1.75841C11.8987 1.70987 11.8052 1.6787 11.7083 1.66675H8.33333C7.67029 1.66675 7.03441 1.93014 6.56557 2.39898C6.09673 2.86782 5.83333 3.50371 5.83333 4.16675V5.00008H5C4.33696 5.00008 3.70107 5.26347 3.23223 5.73231C2.76339 6.20116 2.5 6.83704 2.5 7.50008V15.8334C2.5 16.4965 2.76339 17.1323 3.23223 17.6012C3.70107 18.07 4.33696 18.3334 5 18.3334H11.6667C12.3297 18.3334 12.9656 18.07 13.4344 17.6012C13.9033 17.1323 14.1667 16.4965 14.1667 15.8334V15.0001H15C15.663 15.0001 16.2989 14.7367 16.7678 14.2678C17.2366 13.799 17.5 13.1631 17.5 12.5001V7.50008C17.5 7.50008 17.5 7.50008 17.5 7.45008ZM12.5 4.50841L14.6583 6.66675H13.3333C13.1123 6.66675 12.9004 6.57895 12.7441 6.42267C12.5878 6.26639 12.5 6.05443 12.5 5.83342V4.50841ZM12.5 15.8334C12.5 16.0544 12.4122 16.2664 12.2559 16.4227C12.0996 16.579 11.8877 16.6667 11.6667 16.6667H5C4.77899 16.6667 4.56702 16.579 4.41074 16.4227C4.25446 16.2664 4.16667 16.0544 4.16667 15.8334V7.50008C4.16667 7.27907 4.25446 7.06711 4.41074 6.91083C4.56702 6.75455 4.77899 6.66675 5 6.66675H5.83333V12.5001C5.83333 13.1631 6.09673 13.799 6.56557 14.2678C7.03441 14.7367 7.67029 15.0001 8.33333 15.0001H12.5V15.8334ZM15.8333 12.5001C15.8333 12.7211 15.7455 12.9331 15.5893 13.0893C15.433 13.2456 15.221 13.3334 15 13.3334H8.33333C8.11232 13.3334 7.90036 13.2456 7.74408 13.0893C7.5878 12.9331 7.5 12.7211 7.5 12.5001V4.16675C7.5 3.94573 7.5878 3.73377 7.74408 3.57749C7.90036 3.42121 8.11232 3.33341 8.33333 3.33341H10.8333V5.83342C10.8333 6.49646 11.0967 7.13234 11.5656 7.60118C12.0344 8.07002 12.6703 8.33342 13.3333 8.33342H15.8333V12.5001Z" fill="#1B57F0"/>
</svg>
