<svg width="16" height="16" viewBox="0 0 16 16" fill="none" xmlns="http://www.w3.org/2000/svg">
<g clipPath="url(#clip0)">
<path d="M9.35327 6.98242C9.4082 7.22961 9.4375 7.48645 9.4375 7.75C9.4375 8.82971 8.9502 9.79773 8.1842 10.4459C8.20605 10.4546 8.22815 10.463 8.25 10.4719V11.8531C7.58081 11.4885 6.81421 11.2812 6 11.2812V11.28C5.98962 11.2803 5.97913 11.2803 5.96875 11.2805V11.2812C3.36682 11.2812 1.25 13.3981 1.25 16H0C0 13.5197 1.521 11.3881 3.67908 10.4882C2.88379 9.84021 2.375 8.85339 2.375 7.75C2.375 5.80286 3.95911 4.21875 5.90625 4.21875C6.1377 4.21875 6.36389 4.24133 6.58301 4.28406C6.52881 4.03894 6.5 3.78442 6.5 3.52332C6.5 1.58057 8.08057 0 10.0233 0C11.9661 0 13.5466 1.58057 13.5466 3.52332C13.5466 4.61377 13.0486 5.59009 12.2682 6.23682C13.2998 6.64648 14.189 7.33423 14.8402 8.21875H13.1575C12.381 7.53052 11.377 7.09375 10.2739 7.0376C10.191 7.04346 10.1075 7.04663 10.0233 7.04663C9.79419 7.04663 9.57019 7.02441 9.35327 6.98242ZM7.75 3.52332C7.75 4.77686 8.76978 5.79663 10.0233 5.79663C11.2767 5.79663 12.2966 4.77686 12.2966 3.52332C12.2966 2.26978 11.2767 1.25 10.0233 1.25C8.76978 1.25 7.75 2.26978 7.75 3.52332ZM8.1875 7.75C8.1875 6.49207 7.16418 5.46875 5.90625 5.46875C4.64832 5.46875 3.625 6.49207 3.625 7.75C3.625 9.00793 4.64832 10.0312 5.90625 10.0312C7.16418 10.0312 8.1875 9.00793 8.1875 7.75Z" fill="#181818"/>
<path d="M11.522 15.9381L15.8821 12.3043C16.021 12.1885 16.0399 11.9802 15.9242 11.8414L15.5035 11.3366C15.3878 11.1978 15.1795 11.1789 15.0406 11.2945L11.3723 14.3515L9.83785 12.8173C9.71001 12.6895 9.50087 12.6895 9.3731 12.8173L8.90836 13.2821C8.78055 13.4099 8.78055 13.619 8.90836 13.7468L11.0792 15.9179C11.1959 16.0347 11.3951 16.0437 11.522 15.9381Z" fill="#181818"/>
</g>
<defs>
<clipPath id="clip0">
<rect width="16" height="16" fill="white"/>
</clipPath>
</defs>
</svg>
