<svg width="20" height="20" viewBox="0 0 20 20" fill="none" xmlns="http://www.w3.org/2000/svg">
<path d="M9.16675 14.1665H10.8334V9.1665H9.16675V14.1665ZM10.0001 1.6665C5.40008 1.6665 1.66675 5.39984 1.66675 9.99984C1.66675 14.5998 5.40008 18.3332 10.0001 18.3332C14.6001 18.3332 18.3334 14.5998 18.3334 9.99984C18.3334 5.39984 14.6001 1.6665 10.0001 1.6665ZM10.0001 16.6665C6.32508 16.6665 3.33341 13.6748 3.33341 9.99984C3.33341 6.32484 6.32508 3.33317 10.0001 3.33317C13.6751 3.33317 16.6667 6.32484 16.6667 9.99984C16.6667 13.6748 13.6751 16.6665 10.0001 16.6665ZM9.16675 7.49984H10.8334V5.83317H9.16675V7.49984Z" fill="#A2A2A2"/>
</svg>
