<svg width="16" height="16" viewBox="0 0 16 16" fill="none" xmlns="http://www.w3.org/2000/svg">
<path d="M13.2733 10.3399H10.2533C10.0764 10.3399 9.90687 10.4102 9.78185 10.5352C9.65682 10.6602 9.58659 10.8298 9.58659 11.0066C9.58659 11.1834 9.65682 11.353 9.78185 11.478C9.90687 11.603 10.0764 11.6733 10.2533 11.6733H11.8533C11.1179 12.4417 10.1695 12.9728 9.13003 13.1982C8.09053 13.4236 7.00739 13.333 6.01977 12.9381C5.03215 12.5432 4.18516 11.862 3.58765 10.982C2.99013 10.1021 2.66937 9.06356 2.66659 7.99992C2.66659 7.82311 2.59635 7.65354 2.47132 7.52851C2.3463 7.40349 2.17673 7.33325 1.99992 7.33325C1.82311 7.33325 1.65354 7.40349 1.52851 7.52851C1.40349 7.65354 1.33325 7.82311 1.33325 7.99992C1.33678 9.30178 1.7214 10.5741 2.43965 11.6599C3.15791 12.7457 4.17836 13.5975 5.37508 14.1101C6.5718 14.6226 7.89241 14.7736 9.17393 14.5443C10.4555 14.3151 11.6418 13.7156 12.5866 12.8199V13.9999C12.5866 14.1767 12.6568 14.3463 12.7818 14.4713C12.9069 14.5963 13.0764 14.6666 13.2533 14.6666C13.4301 14.6666 13.5996 14.5963 13.7247 14.4713C13.8497 14.3463 13.9199 14.1767 13.9199 13.9999V10.9999C13.9183 10.8277 13.85 10.6628 13.7295 10.5397C13.6089 10.4167 13.4454 10.3451 13.2733 10.3399ZM7.99992 1.33325C6.29084 1.33813 4.64891 1.99919 3.41325 3.17992V1.99992C3.41325 1.82311 3.34301 1.65354 3.21799 1.52851C3.09297 1.40349 2.9234 1.33325 2.74659 1.33325C2.56977 1.33325 2.40021 1.40349 2.27518 1.52851C2.15016 1.65354 2.07992 1.82311 2.07992 1.99992V4.99992C2.07992 5.17673 2.15016 5.3463 2.27518 5.47132C2.40021 5.59635 2.56977 5.66659 2.74659 5.66659H5.74659C5.9234 5.66659 6.09297 5.59635 6.21799 5.47132C6.34301 5.3463 6.41325 5.17673 6.41325 4.99992C6.41325 4.82311 6.34301 4.65354 6.21799 4.52851C6.09297 4.40349 5.9234 4.33325 5.74659 4.33325H4.14659C4.88156 3.56517 5.82931 3.03425 6.86819 2.80866C7.90706 2.58306 8.98965 2.67308 9.97699 3.06716C10.9643 3.46124 11.8114 4.14139 12.4094 5.02032C13.0074 5.89925 13.3291 6.93684 13.3333 7.99992C13.3333 8.17673 13.4035 8.3463 13.5285 8.47132C13.6535 8.59635 13.8231 8.66659 13.9999 8.66659C14.1767 8.66659 14.3463 8.59635 14.4713 8.47132C14.5963 8.3463 14.6666 8.17673 14.6666 7.99992C14.6666 7.12444 14.4941 6.25753 14.1591 5.4487C13.8241 4.63986 13.333 3.90493 12.714 3.28587C12.0949 2.66682 11.36 2.17575 10.5511 1.84072C9.74231 1.50569 8.8754 1.33325 7.99992 1.33325Z" fill="#1B57F0"/>
</svg>
