<svg width="16" height="16" viewBox="0 0 16 16" fill="none" xmlns="http://www.w3.org/2000/svg">
<path d="M12.6728 0H3.32727C2.96436 0 2.67017 0.294196 2.67017 0.657106V14.0078C2.67017 14.3708 2.96436 14.6649 3.32727 14.6649C3.69018 14.6649 3.98438 14.3708 3.98438 14.0078V1.31421H12.0157V13.3507H11.3377C10.9748 13.3507 10.6806 13.6449 10.6806 14.0078C10.6806 14.3708 10.9748 14.6649 11.3377 14.6649H12.6728C13.0357 14.6649 13.3299 14.3708 13.3299 14.0078V0.657106C13.3299 0.294196 13.0357 0 12.6728 0Z" fill="#181818"/>
<path d="M9.85297 14.4114C10.0374 14.1751 10.0396 13.8434 9.85297 13.6042C9.81076 13.5501 9.93727 13.6806 8.46473 12.2081C8.20811 11.9515 7.79204 11.9515 7.53542 12.2081C7.27884 12.4647 7.27884 12.8808 7.53542 13.1374L7.74876 13.3507H5.32996C4.96705 13.3507 4.67285 13.6449 4.67285 14.0078C4.67285 14.3707 4.96705 14.6649 5.32996 14.6649H7.74876L7.53542 14.8782C7.12023 15.2934 7.42002 16 8.00009 15.9999C8.16825 15.9999 8.33644 15.9358 8.46476 15.8075C9.94916 14.3231 9.81348 14.462 9.85297 14.4114Z" fill="#181818"/>
<path d="M9.33505 3.98438C9.69795 3.98438 9.99215 3.69018 9.99215 3.32727C9.99215 2.96436 9.69795 2.67017 9.33505 2.67017H6.66492C6.30201 2.67017 6.00781 2.96436 6.00781 3.32727C6.00781 3.69018 6.30201 3.98438 6.66492 3.98438H9.33505Z" fill="#181818"/>
<path d="M10.0026 5.34033H5.99744C5.63453 5.34033 5.34033 5.63453 5.34033 5.99744C5.34033 6.36035 5.63453 6.65455 5.99744 6.65455H10.0026C10.3656 6.65455 10.6598 6.36035 10.6598 5.99744C10.6598 5.63453 10.3655 5.34033 10.0026 5.34033Z" fill="#181818"/>
</svg>
