<svg width="16" height="16" viewBox="0 0 16 16" fill="none" xmlns="http://www.w3.org/2000/svg">
<path fillRule="evenodd" clipRule="evenodd" d="M8 1.35593C4.33923 1.35593 1.35593 4.33923 1.35593 8C1.35593 10.5955 2.86017 12.8564 5.04899 13.951L4.44254 15.1637C1.81519 13.8499 0 11.1319 0 8C0 3.59037 3.59037 0 8 0C12.4096 0 16 3.59037 16 8C16 11.1319 14.1848 13.8499 11.5575 15.1637L10.951 13.951C13.1398 12.8564 14.6441 10.5955 14.6441 8C14.6441 4.33923 11.6608 1.35593 8 1.35593Z" fill="#181818"/>
<path fillRule="evenodd" clipRule="evenodd" d="M4.06763 12.8809C4.06763 10.7167 5.83562 8.94873 7.99983 8.94873C10.164 8.94873 11.932 10.7167 11.932 12.8809V14.9759L11.5573 15.1633C10.489 15.6974 9.27891 15.9996 7.99983 15.9996C6.72075 15.9996 5.51061 15.6974 4.44238 15.1633L4.06763 14.9759V12.8809ZM7.99983 10.3047C6.58448 10.3047 5.42356 11.4656 5.42356 12.8809V14.1234C6.2125 14.4575 7.08358 14.6436 7.99983 14.6436C8.91608 14.6436 9.78716 14.4575 10.5761 14.1234V12.8809C10.5761 11.4656 9.41518 10.3047 7.99983 10.3047Z" fill="#181818"/>
<path fillRule="evenodd" clipRule="evenodd" d="M6.91501 7.18604C6.91501 7.78302 7.40278 8.27079 7.99976 8.27079C8.59674 8.27079 9.08451 7.78302 9.08451 7.18604C9.08451 6.58906 8.59674 6.10129 7.99976 6.10129C7.40278 6.10129 6.91501 6.58906 6.91501 7.18604ZM5.55908 7.18604C5.55908 8.53188 6.65392 9.62672 7.99976 9.62672C9.3456 9.62672 10.4404 8.53188 10.4404 7.18604C10.4404 5.8402 9.3456 4.74536 7.99976 4.74536C6.65392 4.74536 5.55908 5.8402 5.55908 7.18604Z" fill="#181818"/>
</svg>
