<svg width="16" height="16" viewBox="0 0 16 16" fill="none" xmlns="http://www.w3.org/2000/svg">
<path d="M7.33325 7.99992H1.99992C1.82311 7.99992 1.65354 8.07016 1.52851 8.19518C1.40349 8.32021 1.33325 8.48977 1.33325 8.66659V13.9999C1.33325 14.1767 1.40349 14.3463 1.52851 14.4713C1.65354 14.5963 1.82311 14.6666 1.99992 14.6666H7.33325C7.51006 14.6666 7.67963 14.5963 7.80466 14.4713C7.92968 14.3463 7.99992 14.1767 7.99992 13.9999V8.66659C7.99992 8.48977 7.92968 8.32021 7.80466 8.19518C7.67963 8.07016 7.51006 7.99992 7.33325 7.99992ZM6.66659 13.3333H2.66659V9.33325H6.66659V13.3333ZM14.6133 1.74659C14.5456 1.58369 14.4162 1.45424 14.2533 1.38659C14.1731 1.35242 14.087 1.33431 13.9999 1.33325H9.99992C9.82311 1.33325 9.65354 1.40349 9.52851 1.52851C9.40349 1.65354 9.33325 1.82311 9.33325 1.99992C9.33325 2.17673 9.40349 2.3463 9.52851 2.47132C9.65354 2.59635 9.82311 2.66659 9.99992 2.66659H12.3933L8.85992 6.19325C8.79743 6.25523 8.74784 6.32896 8.71399 6.4102C8.68015 6.49144 8.66272 6.57858 8.66272 6.66659C8.66272 6.75459 8.68015 6.84173 8.71399 6.92297C8.74784 7.00421 8.79743 7.07794 8.85992 7.13992C8.9219 7.2024 8.99563 7.252 9.07687 7.28585C9.15811 7.31969 9.24524 7.33712 9.33325 7.33712C9.42126 7.33712 9.5084 7.31969 9.58964 7.28585C9.67088 7.252 9.74461 7.2024 9.80659 7.13992L13.3333 3.60659V5.99992C13.3333 6.17673 13.4035 6.3463 13.5285 6.47132C13.6535 6.59635 13.8231 6.66659 13.9999 6.66659C14.1767 6.66659 14.3463 6.59635 14.4713 6.47132C14.5963 6.3463 14.6666 6.17673 14.6666 5.99992V1.99992C14.6655 1.9128 14.6474 1.82673 14.6133 1.74659Z" fill="#1B57F0"/>
</svg>
