<svg width="16" height="16" viewBox="0 0 16 16" fill="none" xmlns="http://www.w3.org/2000/svg">
<path d="M5.14278 11.6191C7.24672 11.6191 8.9523 9.91347 8.9523 7.80953C8.9523 5.70558 7.24672 4 5.14278 4C3.03884 4 1.33325 5.70558 1.33325 7.80953C1.33325 9.91347 3.03884 11.6191 5.14278 11.6191Z" fill="#ACC7F2"/>
<path d="M11.1111 11.365C12.163 11.365 13.0158 9.77314 13.0158 7.80946C13.0158 5.84578 12.163 4.25391 11.1111 4.25391C10.0591 4.25391 9.2063 5.84578 9.2063 7.80946C9.2063 9.77314 10.0591 11.365 11.1111 11.365Z" fill="#ACC7F2"/>
<path d="M13.9682 11.1112C14.3539 11.1112 14.6666 9.66145 14.6666 7.8731C14.6666 6.08475 14.3539 4.63501 13.9682 4.63501C13.5825 4.63501 13.2698 6.08475 13.2698 7.8731C13.2698 9.66145 13.5825 11.1112 13.9682 11.1112Z" fill="#ACC7F2"/>
</svg>
