<svg width="18" height="20" viewBox="0 0 18 20" fill="none" xmlns="http://www.w3.org/2000/svg">
<path d="M11.0838 8.55254C11.2884 8.75708 11.3906 9.01276 11.3906 9.31958C11.3906 9.6264 11.2884 9.89493 11.0838 10.125C10.9048 10.3295 10.6747 10.4318 10.3934 10.4318C10.2145 10.4318 10.0483 10.3807 9.89493 10.2784C9.74144 10.1761 9.61364 10.0483 9.51136 9.89493C9.43462 9.71591 9.39633 9.52413 9.39633 9.31958C9.39633 9.16617 9.42185 9.02553 9.47299 8.89773C9.52413 8.76993 9.58811 8.65481 9.66477 8.55254C9.76705 8.45026 9.88208 8.3736 10.01 8.32246C10.1378 8.27133 10.2656 8.24572 10.3934 8.24572C10.6747 8.24572 10.9048 8.34799 11.0838 8.55254ZM6.09801 8.55254C6.30255 8.34799 6.54545 8.24572 6.8267 8.24572C7.10795 8.24572 7.33807 8.34799 7.51705 8.55254C7.72159 8.75708 7.82386 9.01276 7.82386 9.31958C7.82386 9.6264 7.72159 9.89493 7.51705 10.125C7.33807 10.3295 7.10795 10.4318 6.8267 10.4318C6.54545 10.4318 6.30255 10.3295 6.09801 10.125C5.91904 9.89493 5.82955 9.6264 5.82955 9.31958C5.82955 9.01276 5.91904 8.75708 6.09801 8.55254ZM17.1818 2.03267V19.6364C15.6989 18.3323 14.1775 16.9517 12.6179 15.4943L13.1548 17.3352H1.99432C1.45739 17.3352 0.984371 17.1434 0.575284 16.76C0.191761 16.3509 0 15.865 0 15.3025V2.03267C0 1.47017 0.191761 0.997159 0.575284 0.613636C0.984371 0.204545 1.45739 0 1.99432 0H15.1875C15.7245 0 16.1846 0.204545 16.5682 0.613636C16.9773 0.997159 17.1818 1.47017 17.1818 2.03267ZM14.3821 11.3139C14.3821 10.3934 14.267 9.46023 14.0369 8.51416C13.8068 7.54261 13.5639 6.81392 13.3082 6.32813L12.9631 5.59943C12.7073 5.39489 12.4261 5.22869 12.1193 5.10086C11.8381 4.94745 11.5823 4.84517 11.3523 4.79404C11.1477 4.71733 10.9559 4.66619 10.777 4.64063C10.598 4.58949 10.4573 4.56392 10.3551 4.56392H10.2017L10.0866 4.71733C10.5725 4.87073 11.0199 5.0625 11.429 5.29261C11.8381 5.49716 12.1193 5.66336 12.2727 5.79119L12.5028 5.98295C11.3778 5.34375 10.1505 5.01136 8.82098 4.9858C7.49148 4.96023 6.27699 5.19034 5.17755 5.67614L4.60227 5.98295C5.1392 5.47159 5.99573 5.03693 7.17187 4.67898L7.09517 4.56392C6.20028 4.56392 5.27983 4.90909 4.33381 5.59943C4.23154 5.80398 4.10369 6.07245 3.95028 6.40483C3.79687 6.73722 3.57955 7.41477 3.2983 8.4375C3.04261 9.43462 2.91477 10.3934 2.91477 11.3139C2.96591 11.4418 3.0554 11.5823 3.18323 11.7358C3.33664 11.8892 3.66904 12.1066 4.1804 12.3878C4.69177 12.6691 5.26705 12.8096 5.90625 12.8096C6.16193 12.5284 6.37927 12.26 6.55823 12.0043C6.20028 11.902 5.8679 11.7614 5.56108 11.5823C5.27983 11.3778 5.08807 11.1989 4.9858 11.0455L4.83239 10.8537C4.88352 10.8793 4.93466 10.9177 4.9858 10.9687C5.0625 10.9943 5.12642 11.0199 5.17755 11.0455C5.22869 11.071 5.25427 11.0838 5.25427 11.0838C6.12358 11.5696 7.08239 11.8636 8.13068 11.9659C9.20455 12.0427 10.2912 11.8636 11.3906 11.429C11.7741 11.3011 12.1449 11.1094 12.5028 10.8537C12.1705 11.3906 11.5823 11.7869 10.7386 12.0427L11.3906 12.8096C11.7997 12.8096 12.1705 12.7586 12.5028 12.6563C12.8608 12.5284 13.142 12.4005 13.3466 12.2727C13.5767 12.1193 13.7684 11.9787 13.9219 11.8509C14.1009 11.6975 14.2159 11.5696 14.267 11.4673L14.3821 11.3139Z" fill="white"/>
</svg>
