<svg width="14" height="12" viewBox="0 0 14 12" fill="none" xmlns="http://www.w3.org/2000/svg">
<path d="M13.6666 1.86657C13.1655 2.08396 12.6355 2.22767 12.0933 2.29323C12.6654 1.95145 13.0941 1.41375 13.2999 0.779899C12.7623 1.09994 12.1738 1.32543 11.5599 1.44657C11.1496 1.00161 10.6033 0.705425 10.0065 0.604465C9.40972 0.503499 8.79625 0.603465 8.26245 0.888685C7.72859 1.17391 7.30452 1.62825 7.05672 2.18045C6.80892 2.73266 6.75145 3.35149 6.89325 3.9399C5.80619 3.88491 4.74288 3.60187 3.77235 3.10914C2.80183 2.61641 1.94582 1.92503 1.25992 1.0799C1.01935 1.50001 0.892932 1.97578 0.893252 2.4599C0.892399 2.90949 1.00273 3.35231 1.21443 3.74894C1.42611 4.14557 1.7326 4.48371 2.10659 4.73325C1.67191 4.72139 1.24651 4.60476 0.866585 4.39323V4.42657C0.869845 5.05652 1.09058 5.66599 1.49146 6.15185C1.89235 6.63778 2.44876 6.97032 3.06659 7.09325C2.82876 7.16559 2.58184 7.20379 2.33325 7.20659C2.16118 7.20459 1.98953 7.18892 1.81992 7.15992C1.99586 7.70179 2.33633 8.17532 2.79397 8.51465C3.25161 8.85399 3.80364 9.04225 4.37325 9.05325C3.41139 9.81005 2.22384 10.2231 0.999919 10.2266C0.777079 10.2273 0.554412 10.2139 0.333252 10.1866C1.58287 10.9934 3.03913 11.4217 4.52659 11.4199C5.55305 11.4306 6.57132 11.2366 7.52199 10.8493C8.47265 10.462 9.33659 9.88912 10.0634 9.16425C10.7902 8.43932 11.3653 7.57685 11.755 6.62719C12.1447 5.67752 12.3413 4.65971 12.3333 3.63323C12.3333 3.51989 12.3333 3.3999 12.3333 3.2799C12.8564 2.88977 13.3076 2.41151 13.6666 1.86657Z" fill="#ACC7F2"/>
</svg>
