<svg width="16" height="16" viewBox="0 0 16 16" fill="none" xmlns="http://www.w3.org/2000/svg">
<path fill-rule="evenodd" clip-rule="evenodd" d="M8 1.23552C4.26408 1.23552 1.23552 4.26408 1.23552 8C1.23552 11.7359 4.26408 14.7645 8 14.7645C11.7359 14.7645 14.7645 11.7359 14.7645 8C14.7645 4.26408 11.7359 1.23552 8 1.23552ZM0 8C0 3.58172 3.58172 0 8 0C12.4183 0 16 3.58172 16 8C16 12.4183 12.4183 16 8 16C3.58172 16 0 12.4183 0 8Z" fill="#ACC7F2"/>
<path d="M2.22388 11.9844C2.22388 11.9844 3.14681 9.26074 3.02697 7.90723C3.02697 7.90723 3.21229 6.05394 4.07716 5.37441C4.94202 4.69487 6.05399 4.32421 6.48643 4.32421C6.91886 4.32421 7.47484 4.33472 7.8455 4.45271C8.27793 4.20066 9.57523 4.13889 9.76056 5.06553C10.8108 5.43618 12.8494 6.05394 13.0965 6.60993C13.3436 7.16591 13.5289 7.66012 13.0347 8.27788C12.5405 8.89564 11.1196 10.2547 10.8725 10.5636C10.6254 10.8725 9.63701 12.0462 9.45168 12.6022C9.26635 13.1582 8.95747 13.8377 9.08102 14.8261C7.59839 15.0115 3.58295 14.6408 2.22388 11.9844Z" fill="#ACC7F2"/>
</svg>
